<?xml version="1.0" encoding="UTF-8" standalone="no"?>
<!-- Created with Inkscape (http://www.inkscape.org/) -->

<svg
   width="46.302082mm"
   height="47.095848mm"
   viewBox="0 0 46.302083 47.095847"
   version="1.1"
   id="svg5"
   xml:space="preserve"
   xmlns="http://www.w3.org/2000/svg"
   xmlns:svg="http://www.w3.org/2000/svg"><defs
     id="defs2" /><g
     id="layer1"
     transform="translate(-40.33921,-80.716467)"><path
       style="fill:#ffffff;stroke-width:0.264583"
       d="M 40.33921,104.26438 V 80.716467 h 23.151041 23.151042 v 23.547913 23.54793 H 63.490251 40.33921 Z m 45.179098,-0.0662 0.06764,-22.423433 H 63.491746 41.397544 v 22.491103 22.49111 l 22.026562,-0.0677 22.026562,-0.0677 z m -35.45566,7.18655 c -0.254662,-0.14714 -0.463021,-0.40449 -0.463021,-0.57188 0,-0.22211 0.08579,-0.21856 0.3175,0.0131 0.174625,0.17462 0.536913,0.3175 0.805085,0.3175 0.70694,0 2.908087,-2.16098 3.699149,-3.63165 0.780705,-1.45142 1.696406,-4.2259 1.46959,-4.45272 -0.289663,-0.28966 -2.92322,1.25086 -4.233351,2.47633 -0.721239,0.67464 -1.533604,1.64689 -1.805256,2.16055 -0.642492,1.2149 -0.65262,0.46376 -0.01275,-0.94523 0.67239,-1.48058 2.396468,-3.07068 4.564881,-4.21015 l 1.80973,-0.95099 v -1.957957 -1.957958 l -0.859896,-0.137331 c -3.97718,-0.635177 -3.954432,-0.615616 -0.754717,-0.648966 l 3.015596,-0.03143 -0.173294,2.254494 -0.173294,2.254498 0.729573,-0.19736 c 0.401266,-0.10854 1.143994,-0.20033 1.650509,-0.20397 0.800846,-0.006 0.938851,0.0897 1.058333,0.73173 l 0.137398,0.73835 1.28625,-0.81736 c 2.709034,-1.721495 3.843554,-2.203884 4.297405,-1.827221 0.32965,0.273581 0.380535,0.641281 0.242094,1.749321 -0.09641,0.77162 -0.118469,1.40294 -0.04903,1.40294 0.06944,0 1.000742,-0.54012 2.069558,-1.20026 2.432777,-1.50258 3.038115,-1.48351 3.629511,0.1143 0.607717,1.64191 1.012688,1.82564 2.925535,1.32728 1.724126,-0.44919 1.854962,-0.24433 0.331243,0.51866 -2.339888,1.17168 -3.500075,0.93078 -4.280003,-0.88872 -0.281538,-0.6568 -0.676037,-1.19418 -0.876668,-1.19418 -0.200631,0 -1.21248,0.59531 -2.248548,1.32292 -1.036072,0.7276 -2.124482,1.32291 -2.418689,1.32291 -0.495842,0 -0.5228,-0.11598 -0.368996,-1.5875 0.119017,-1.13869 0.07749,-1.5875 -0.146889,-1.5875 -0.502804,0 -2.410259,1.03374 -4.194338,2.27311 l -1.653646,1.14875 v -1.33188 c 0,-1.14448 -0.06515,-1.31253 -0.463021,-1.19433 -0.254661,0.0757 -0.789248,0.21535 -1.187971,0.31043 -0.576228,0.13741 -0.783004,0.39781 -1.007936,1.26933 -0.493536,1.91227 -0.570775,2.12728 -1.249334,3.47772 -0.908703,1.80846 -1.74873,2.86025 -2.913153,3.64753 -1.24978,0.84499 -1.922295,1.0315 -2.505147,0.69474 z"
       id="path181" /></g></svg>
