<?xml version="1.0" encoding="UTF-8" standalone="no"?>
<!-- Created with Inkscape (http://www.inkscape.org/) -->

<svg
   width="107.40129mm"
   height="138.22585mm"
   viewBox="0 0 107.40129 138.22585"
   version="1.1"
   id="svg5"
   xml:space="preserve"
   xmlns="http://www.w3.org/2000/svg"
   xmlns:svg="http://www.w3.org/2000/svg"><defs
     id="defs2" /><g
     id="layer1"
     transform="translate(-55.293069,-65.503229)"><path
       style="fill:#000000;stroke-width:0.264583"
       d="m 80.498768,203.2837 c 4.673637,-12.05746 3.426288,-21.55754 -3.277071,-24.95888 -14.982476,-7.60223 -20.252134,-16.14287 -21.702599,-35.17385 -0.935193,-12.2703 1.123379,-35.29466 4.481208,-50.120598 0.831954,-3.673351 3.983498,-7.536583 7.691306,-9.428166 0.88156,-0.449736 1.579179,-1.425927 1.579179,-2.209768 0,-0.683932 1.490482,-3.366183 2.645833,-4.761399 2.176097,-2.627887 4.628113,-2.924549 9.061979,-1.096384 0.383411,0.158086 0.463021,0.04755 0.463021,-0.642916 0,-5.93424 7.036184,-9.658677 11.173524,-5.914437 0.44474,0.402489 0.52653,0.386429 1.20031,-0.235706 2.85901,-2.639875 7.524152,-3.947069 9.810722,-2.749015 0.56967,0.298481 0.87709,0.296123 1.92392,-0.01475 3.15216,-0.93609 8.14505,-0.425361 9.65357,0.987477 0.48602,0.45519 0.70475,0.487422 1.7198,0.253427 6.07072,-1.399468 11.12647,1.255727 13.0673,6.862721 0.59529,1.719792 0.59529,1.719792 2.67984,1.870303 5.71385,0.412557 9.38748,3.198498 10.05085,7.622185 0.16736,1.116042 0.44133,1.479336 3.18343,4.221441 8.11406,8.114057 9.23254,11.165977 8.01593,21.872535 -0.29764,2.61937 -0.60907,5.3697 -0.69206,6.11183 -0.15088,1.34933 -0.15088,1.34933 1.4334,1.49299 6.30795,0.57198 9.17042,6.66294 7.61683,16.20768 -1.51707,9.32037 -5.50281,13.48891 -12.9006,13.49223 -3.88326,0.002 -3.23414,-1.03264 -4.81603,7.67444 -3.78748,20.84713 -4.76597,37.13726 -2.78046,46.28969 0.64215,2.96007 0.65754,2.79051 -0.2533,2.79051 -0.83998,0 -1.08207,-0.72713 -1.93796,-5.82083 -1.10119,-6.55356 0.12794,-24.5999 2.66705,-39.15833 0.41877,-2.4011 0.73904,-4.39392 0.71171,-4.4285 -0.0273,-0.0346 -0.60608,1.21558 -1.28611,2.77813 -8.34189,19.16783 -20.71496,27.14379 -40.53021,26.12669 -7.520292,-0.38601 -16.512336,-1.28445 -17.351769,-1.7337 -0.260049,-0.13917 -0.525989,-0.25304 -0.590982,-0.25304 -0.06499,0 0.253093,1.0418 0.706853,2.3151 1.824757,5.12049 -0.162882,19.88442 -2.709759,20.12777 -0.774475,0.074 -0.870358,0.0203 -0.708655,-0.39688 z m 30.638312,-22.17462 c 15.0862,-1.97763 24.35032,-11.14559 31.81937,-31.48908 0.48085,-1.30969 0.95837,-2.58961 1.06115,-2.84427 0.12335,-0.30558 0.0648,-0.46236 -0.17214,-0.46107 -1.21429,0.007 -8.1639,-2.21869 -8.1602,-2.61291 0.0117,-1.2422 0.30474,-1.24563 4.40802,-0.0516 14.57425,4.24098 20.733,-0.1375 20.81753,-14.79993 0.0568,-9.85117 -4.46117,-11.99228 -17.48754,-8.28756 -1.51692,0.43141 -1.68514,0.43495 -2.07635,0.0437 -1.13309,-1.13308 0.58597,-1.84374 7.34067,-3.0346 3.00651,-0.53005 2.60544,0.27489 3.4121,-6.84803 0.79679,-7.03589 1.15758,-6.75431 -3.85077,-3.00528 -21.25227,15.90851 -36.17305,20.86751 -54.504172,18.11474 -19.1059,-2.86911 -29.414466,-11.03327 -32.734104,-25.924698 -0.359447,-1.61244 -0.294962,-1.86997 -1.516202,6.055228 -5.218026,33.86223 -2.639762,54.44737 8.013692,63.98216 4.051779,3.62632 14.025568,9.25185 17.637657,9.94819 7.267367,1.40099 20.023479,1.99729 25.991289,1.21498 z M 94.538498,165.60034 c -8.604487,-1.04052 -15.074819,-3.74439 -21.386474,-8.93717 -0.994018,-0.8178 -1.98411,-1.62483 -2.200206,-1.79339 -0.329438,-0.25697 -0.337074,-0.39585 -0.04728,-0.85989 0.482069,-0.77192 0.522431,-0.75571 2.864348,1.15051 13.084895,10.65054 30.518304,12.31105 44.002704,4.19119 1.52788,-0.92003 2.24361,-0.84095 2.29079,0.25312 0.0312,0.72406 -7.88971,4.52567 -11.23638,5.39284 -3.00975,0.77986 -10.284952,1.0868 -14.287502,0.60279 z m -0.52917,-8.35756 c -5.762935,-3.70531 -6.176008,-5.57388 -2.28209,-10.32329 2.6892,-3.28002 2.7934,-3.52151 2.94355,-6.82176 0.11728,-2.5777 0.18875,-2.91846 0.62976,-3.0026 2.1586,-0.41181 1.10585,6.55629 -1.47429,9.7582 -2.71698,3.37172 -3.12422,3.99246 -3.12422,4.76211 0,1.02083 1.16633,2.30948 3.45481,3.81714 1.9652,1.29467 2.00559,1.35131 1.46855,2.05878 -0.42794,0.56373 -0.32899,0.57895 -1.61607,-0.24858 z m 21.695842,-12.40926 c -3.86048,-0.5423 -6.98526,-1.49141 -9.19683,-2.7934 -1.27277,-0.7493 -4.42921,-2.88398 -4.42921,-2.99544 0,-9.60243 13.26056,-13.10847 23.23554,-6.14338 5.95479,4.15797 6.42172,5.08296 3.75196,7.43252 -4.05028,3.56451 -8.75057,5.14741 -13.36146,4.4997 z m 5.83139,-2.1012 c 2.11453,-0.54359 6.63829,-3.44179 7.10859,-4.55421 0.2679,-0.63366 -6.87765,-5.88832 -8.00723,-5.88832 -0.22053,0 -0.18523,0.25315 0.11671,0.83703 0.66718,1.29018 0.39974,3.4121 -0.5868,4.65568 -4.53823,5.72073 -14.6054,0.37898 -10.54953,-5.59769 0.67343,-0.99235 0.67343,-0.99235 0.0729,-0.80704 -3.29733,1.01741 -6.46901,6.23974 -4.62865,7.62132 4.52821,3.39936 11.56755,4.99457 16.47406,3.73323 z m -4.31573,-4.55555 c 2.2652,-1.75445 2.7102,-3.8008 1.20045,-5.52031 -3.3569,-3.82329 -9.8261,-0.69239 -7.72372,3.73805 1.09575,2.30913 4.6051,3.26794 6.52327,1.78226 z m 28.79688,0.79375 c -0.57004,-0.46302 -0.57004,-0.46302 0.8018,-2.40869 1.51326,-2.14623 1.49486,-2.25086 -0.44706,-2.54207 -4.62922,-0.6942 -3.57301,-4.27097 2.06739,-7.00108 4.9378,-2.39003 6.63472,-0.75698 4.01122,3.86026 -0.56493,0.99425 -1.06369,1.88761 -1.10836,1.98525 -0.0447,0.0976 0.58041,0.26017 1.38906,0.36121 2.72962,0.34104 2.19904,1.74855 -0.58024,1.53923 -2.05052,-0.15443 -2.05052,-0.15443 -3.74212,2.25724 -0.93038,1.32642 -1.72086,2.41167 -1.75662,2.41167 -0.0358,0 -0.32155,-0.20836 -0.63507,-0.46302 z m 4.63996,-8.13593 c 2.13638,-3.53096 1.74865,-4.09412 -1.64859,-2.39455 -3.48257,1.74226 -4.80533,3.31428 -3.20756,3.812 3.02504,0.94231 3.51491,0.79932 4.85615,-1.41745 z m -76.095213,7.80567 c -4.763103,-0.63739 -8.270369,-2.97409 -11.230096,-7.48202 -1.493743,-2.27509 -1.0023,-2.84603 5.019061,-5.83091 10.250771,-5.08146 20.233956,-0.2783 20.233956,9.73506 0,2.22558 -8.301086,4.34356 -14.022921,3.57787 z m 7.011459,-1.88376 c 4.791414,-0.94191 5.64583,-1.89357 4.769882,-5.31273 -0.633159,-2.47145 -1.452131,-3.6534 -1.458132,-2.10438 -0.01818,4.69437 -6.477926,7.10648 -10.290921,3.8427 -2.356925,-2.01744 -2.557982,-4.79566 -0.515411,-7.12202 1.71025,-1.94787 -4.177761,-0.0483 -8.858901,2.85806 -1.00765,0.62561 -1.00765,0.62561 0.156408,2.19707 3.858318,5.20869 9.103926,7.03569 16.197075,5.6413 z m -1.400731,-4.21281 c 2.071936,-0.57545 3.195471,-3.08783 2.219619,-4.96339 -1.976295,-3.79838 -7.82596,-2.62913 -7.829357,1.56496 -0.0021,2.68559 2.568678,4.24303 5.609738,3.39843 z m 30.824615,-8.34064 c 0.84888,-0.17217 0.84888,-0.17217 0.92604,-2.03426 0.13071,-3.15425 1.79695,-3.16805 1.79695,-0.0149 0,1.68103 -0.0604,1.66758 3.36613,0.74958 7.28871,-1.95272 16.33777,-6.57036 24.76007,-12.63478 1.4694,-1.05804 2.7663,-1.98994 2.882,-2.07091 0.1157,-0.081 0.0447,-0.79533 -0.15773,-1.5875 -0.20246,-0.79216 -0.45415,-1.97607 -0.55932,-2.63092 -0.40184,-2.50204 -2.02211,-4.233338 -3.96186,-4.233338 -2.33333,0 -2.5563,0.324768 -3.17897,4.630218 -0.25978,1.79627 -1.40326,3.60476 -1.4638,2.3151 -0.005,-0.10914 -0.0566,-2.2225 -0.11444,-4.69635 -0.0578,-2.473868 -0.18349,-4.974178 -0.27928,-5.556258 -0.92235,-5.60488 -1.19,-6.43312 -2.45344,-7.592087 -1.75579,-1.610606 -5.6627,-2.367685 -6.9027,-1.337601 -1.40858,1.17013 -2.62359,12.746496 -1.63349,15.563536 0.52727,1.50017 0.35006,2.2297 -0.54161,2.2297 -2.33427,0 -2.24241,-10.599178 0.16166,-18.653132 0.21719,-0.727604 0.56553,-1.868773 0.77409,-2.535931 1.69881,-5.434208 -6.36944,-8.304501 -10.5879,-3.766664 -2.45034,2.635856 -4.76841,10.741509 -5.20677,18.206639 -0.0679,1.1572 -0.6631,1.527308 -1.43106,0.88996 -0.91333,-0.758 0.17693,-8.2895 1.94782,-13.455463 2.02015,-5.893104 1.28207,-8.186226 -2.76571,-8.59273 -5.04342,-0.506478 -7.999522,2.680777 -7.999522,8.625065 0,2.486504 -1.20577,9.078778 -1.8967,10.369798 -0.45984,0.85922 -2.1372,2.58256 -2.89513,2.9745 -1.52733,0.789818 -1.89608,-0.60749 -0.49355,-1.87021 1.64168,-1.47802 2.90413,-4.6045 2.90413,-7.192119 0,-3.042047 -4.22529,-5.222952 -8.647938,-4.463679 -3.241861,0.556556 -7.52579,9.365588 -5.486342,11.281548 1.357714,1.27551 0.470474,2.12978 -1.350439,1.30025 -1.523294,-0.69394 -2.726441,-0.54864 -4.348361,0.52511 -0.628184,0.41587 -1.291381,0.69887 -1.473771,0.62888 -0.264063,-0.10133 -0.261869,0.21315 0.01077,1.543708 1.469634,7.17208 0.71424,11.17298 -2.570207,13.61298 -0.760479,0.56496 -0.760479,0.56496 0.258878,1.37231 1.741729,1.37947 2.343465,1.55365 3.055721,0.88452 1.196666,-1.12421 2.247837,-0.37081 1.441903,1.03345 -0.492239,0.85768 1.665766,2.01903 7.058091,3.79838 4.135014,1.36447 4.722555,1.43039 5.112905,0.57366 0.51283,-1.12554 1.88764,-0.57666 1.57265,0.62786 -0.15202,0.58132 -0.11105,0.59379 4.01583,1.22224 2.32774,0.35447 14.556692,0.32444 16.354392,-0.0402 z M 71.141273,112.53024 c 3.192754,-2.88446 3.391334,-10.04239 0.280456,-10.10921 -1.974295,-0.0424 -3.794922,-1.00961 -4.661334,-2.476338 -1.451081,-2.45648 -3.334682,2.608108 -2.140183,5.754478 1.307396,3.44374 2.437146,4.98754 3.08161,4.211 1.008915,-1.21566 4.214802,-2.62388 4.214802,-1.85139 0,0.0609 0.06932,0.29131 0.154054,0.51211 0.105042,0.27374 -0.210617,0.62728 -0.992188,1.11128 -2.366817,1.46567 -2.922939,2.20539 -2.307643,3.0695 0.701331,0.98493 1.073626,0.95015 2.370426,-0.22143 z m 75.564257,-11.0644 c -0.22105,-4.548038 -1.43998,-6.846818 -2.90215,-5.473178 -1.41778,1.33193 -2.12095,0.30295 -1.13059,-1.65445 1.66981,-3.30032 1.00849,-4.78065 -2.04228,-4.571545 -2.45375,0.168182 -2.63683,-0.01286 -1.78741,-1.767515 1.48897,-3.075797 0.59877,-8.163708 -1.63001,-9.316254 -2.13045,-1.101698 -5.83263,-1.648042 -6.27541,-0.926089 -0.73648,1.200827 -0.13822,2.705259 1.31027,3.294906 3.12802,1.273342 5.23156,3.061243 4.8853,4.152231 -0.23834,0.750919 -0.75464,0.644819 -2.17736,-0.447445 -1.71774,-1.318765 -4.18308,-2.438328 -6.03194,-2.739239 -2.11565,-0.344331 -2.81225,-1.623846 -0.98048,-1.800947 1.1464,-0.11084 1.28001,-0.752946 0.7346,-3.530423 -0.9845,-5.013523 -3.18322,-7.366939 -6.8827,-7.366939 -1.77112,0 -5.33837,1.06185 -4.23812,1.261543 2.25035,0.408435 5.81278,1.420128 5.99122,1.701446 0.62847,0.99082 -0.24244,1.425329 -2.10033,1.047877 -5.46466,-1.11021 -5.74836,-1.141195 -8.95159,-0.977675 -3.28614,0.167756 -3.53826,0.103195 -3.53826,-0.906066 0,-0.52932 4.57806,-1.477778 5.48788,-1.136948 1.27546,0.477803 0.20484,-2.018318 -1.25454,-2.924926 -2.17021,-1.348193 -7.38824,-0.535999 -6.95896,1.083174 0.90127,3.399502 -2.77821,5.308677 -6.667092,3.459364 -2.36625,-1.125248 -1.78762,-2.602805 0.676572,-1.727606 3.46201,1.229598 5.87835,-0.645352 3.33336,-2.58651 -2.98552,-2.277163 -10.556012,1.306543 -8.228572,3.895222 1.22962,1.367634 1.36919,1.915025 0.61012,2.392995 -0.35339,0.222525 -0.83644,-0.127241 -2.61337,-1.892271 -3.84662,-3.820865 -6.652191,-3.882472 -9.096639,-0.199753 -1.94632,2.932256 -1.079775,5.9768 1.701128,5.9768 0.150119,0 0.656071,0.178345 1.124342,0.396322 2.802159,1.304399 3.498979,2.201519 3.492489,4.496438 -0.003,0.922433 0.0601,1.637107 0.13924,1.588169 0.37069,-0.229102 3.38657,0.716611 4.5076,1.413487 1.25421,0.779661 1.25421,0.779661 1.43004,-1.242275 0.76608,-8.809757 11.173202,-12.855109 14.901052,-5.792187 0.52371,0.992249 0.52371,0.992249 1.54922,0.03518 5.27362,-4.921676 15.21246,-0.174763 12.66756,6.050182 -0.16951,0.414636 0.002,0.463021 1.64397,0.463021 2.1276,0 3.90212,0.531193 5.76398,1.725416 2.16313,1.387467 4.10104,4.09807 4.10104,5.73624 0,0.93304 0,0.93304 1.25512,0.29761 2.499,-1.26515 3.50048,0.20137 1.02952,1.50757 -2.36442,1.24987 -3.64282,4.50083 -1.40316,3.56821 3.55815,-1.48165 6.47068,0.69868 7.74408,5.797238 0.64034,2.56387 0.99976,1.51813 0.81126,-2.3604 z m 6.15546,-0.1323 c 0.0176,-1.0029 -1.43381,-4.298658 -2.74012,-6.222018 -1.96433,-2.89219 -4.4183,-5.538215 -4.29015,-4.625903 0.0511,0.363803 0.0208,1.256773 -0.0674,1.984373 -0.15314,1.26404 -0.1173,1.36414 0.80534,2.24896 1.42594,1.36749 1.94218,3.30759 1.94364,7.304408 10e-4,2.79965 4.29933,2.11782 4.34865,-0.68982 z m -80.226705,-0.69778 c 0.04753,-0.1426 -0.154027,-1.011948 -0.44791,-1.931878 -1.698197,-5.31582 2.267508,-9.356508 7.990541,-8.141618 0.938014,0.199123 1.001464,0.168053 1.3507,-0.661458 0.201547,-0.478716 0.799312,-1.386333 1.328362,-2.016925 0.821836,-0.979569 0.918819,-1.227047 0.665996,-1.699455 -0.782005,-1.461191 -3.077112,-2.878916 -5.652225,-3.491474 -1.486426,-0.353586 -1.947844,-1.185481 -0.952881,-1.717968 1.193604,-0.638797 3.192031,0.144761 6.212187,2.435719 2.047732,1.553324 2.101119,1.575578 3.042708,1.268312 0.527122,-0.172016 1.136997,-0.338232 1.355278,-0.369369 2.269027,-0.32368 1.049877,-3.668858 -1.661456,-4.558813 -0.759688,-0.249356 -2.512346,-0.983604 -3.894794,-1.631659 -4.903581,-2.298671 -10.318766,-0.06852 -11.4676,4.722733 -0.09108,0.379865 -0.68312,1.451428 -1.315636,2.38125 -1.18764,1.745875 -1.905947,4.097388 -1.726083,5.650665 0.08953,0.77315 0.08953,0.77315 0.806947,-0.315633 0.842076,-1.277961 1.661031,-1.64397 2.284162,-1.020842 0.297185,0.297186 0.349099,0.535096 0.168933,0.774158 -4.218807,5.597937 -3.572552,10.821085 1.312291,10.606145 0.282731,-0.0124 0.552948,-0.13929 0.60048,-0.28189 z m -7.595941,-2.741808 c 1.108617,-1.19062 1.108617,-1.19062 0.901633,-3.30729 -0.278264,-2.84563 -0.192831,-5.26636 0.245126,-6.945313 0.460174,-1.764131 0.295307,-1.742933 -1.49647,0.192402 -3.153045,3.405661 -3.454014,4.770321 -2.269778,10.291741 0.588767,2.745088 0.588767,2.745088 1.049819,1.85209 0.253579,-0.49116 0.959932,-1.42879 1.56967,-2.08363 z m 12.085074,-1.56842 c 0.556003,-0.15439 1.338336,-0.28138 1.738519,-0.28219 0.56598,-10e-4 0.727604,-0.12689 0.727604,-0.56609 0,-0.31054 0.139054,-1.02873 0.309007,-1.59599 0.368548,-1.2301 0.236487,-1.4025 -1.410568,-1.84142 -3.090061,-0.82345 -5.412515,1.4797 -4.875919,4.83539 0.257865,1.6126 0.365522,1.65979 1.483066,0.65016 0.559557,-0.50553 1.472287,-1.04546 2.028291,-1.19986 z"
       id="path422" /></g></svg>
