<?xml version="1.0" encoding="UTF-8" standalone="no"?>
<!-- Created with Inkscape (http://www.inkscape.org/) -->

<svg
   width="24.061268mm"
   height="28.26412mm"
   viewBox="0 0 24.061268 28.264119"
   version="1.1"
   id="svg5"
   xml:space="preserve"
   xmlns="http://www.w3.org/2000/svg"
   xmlns:svg="http://www.w3.org/2000/svg"><defs
     id="defs2" /><g
     id="layer1"
     transform="translate(-51.09882,-89.292182)"><path
       style="fill:#000000;stroke-width:0.264583"
       d="m 52.27246,117.18464 c -0.451164,-0.1964 -0.897648,-0.55867 -0.992187,-0.80503 -0.362831,-0.94552 -0.164033,-2.45461 0.440267,-3.3421 0.545559,-0.80121 0.737564,-0.89617 1.764875,-0.87285 1.605681,0.0365 2.650051,1.1795 2.650051,2.90045 0,2.14386 -1.684289,3.06798 -3.863006,2.11953 z m 2.063518,-2.65513 c -0.363739,-0.79832 -0.985458,-0.87088 -1.366202,-0.15945 -0.41007,0.76622 -0.336589,1.06857 0.32142,1.32256 0.891168,0.34398 1.448673,-0.27666 1.044782,-1.16311 z m 15.160946,-3.1853 c -1.582428,-0.55948 -2.513541,-1.72885 -2.513541,-3.15671 0,-1.86356 0.79499,-3.3764 2.152802,-4.09671 1.075787,-0.57071 1.268713,-0.59252 2.66903,-0.30182 1.713579,0.35574 2.645516,1.2167 3.104023,2.86763 0.388763,1.3998 0.348004,1.85926 -0.280035,3.15661 -0.894281,1.84734 -2.707587,2.38826 -5.132279,1.531 z m 3.187025,-1.83953 c 1.252577,-1.25257 0.555011,-3.69331 -1.146796,-4.01257 -1.224451,-0.22971 -2.08335,0.23225 -2.562082,1.37802 -0.490554,1.17406 -0.492737,1.42512 -0.01784,2.05188 0.350008,0.46194 1.993292,1.19538 2.734531,1.22049 0.188515,0.006 0.634999,-0.28063 0.992187,-0.63782 z m -12.035457,-6.77984 c -1.847059,-0.32575 -3.777632,-1.56906 -4.848842,-3.122686 -0.698077,-1.012463 -0.860086,-1.528733 -0.944849,-3.01093 -0.0889,-1.554473 -0.0047,-1.981767 0.642075,-3.260179 0.908241,-1.795107 2.112883,-2.896889 3.610766,-3.302455 0.620876,-0.168108 1.390679,-0.428471 1.710673,-0.578583 0.830184,-0.389448 4.882071,-0.01002 6.547604,0.613139 2.437032,0.911811 3.587302,2.707628 3.584738,5.596539 -0.002,2.262433 -0.392362,3.495201 -1.492249,4.712645 -1.541612,1.70638 -3.08573,2.43031 -5.385442,2.52489 -1.091406,0.0449 -2.63242,-0.0327 -3.424474,-0.17238 z m 5.830315,-2.20796 c 1.538874,-0.861486 1.979794,-1.355073 2.481984,-2.778431 1.391012,-3.942548 -0.910692,-6.578999 -5.859357,-6.711509 -2.688763,-0.072 -4.666331,0.818099 -5.755924,2.590722 -1.536985,2.50047 -0.935367,4.901739 1.658088,6.617998 1.962041,1.29842 5.425446,1.42871 7.475209,0.28122 z m -2.222938,-6.150353 c -1.002617,-0.533939 -0.900428,-1.505905 0.171224,-1.628593 0.91408,-0.104647 1.817034,0.632446 1.708041,1.394297 -0.09614,0.672008 -0.875,0.769112 -1.879265,0.234296 z"
       id="path2008" /></g></svg>
