<?xml version="1.0" encoding="UTF-8" standalone="no"?>
<!-- Created with Inkscape (http://www.inkscape.org/) -->

<svg
   width="69.305077mm"
   height="53.697643mm"
   viewBox="0 0 69.305077 53.697643"
   version="1.1"
   id="svg5"
   xml:space="preserve"
   xmlns="http://www.w3.org/2000/svg"
   xmlns:svg="http://www.w3.org/2000/svg"><defs
     id="defs2" /><g
     id="layer1"
     transform="translate(-76.346537,-91.855705)"><path
       style="fill:#1F1F1F;stroke-width:0.264583"
       d="m 80.056134,145.02744 c -1.67,-0.60061 -2.51276,-1.31283 -3.24621,-2.74337 -0.44101,-0.86016 -0.51284,-1.43396 -0.43728,-3.49289 l 0.0904,-2.46366 1.23863,-1.20346 c 0.68125,-0.66191 1.42539,-1.20347 1.65365,-1.20347 0.31782,0 0.41649,-0.2943 0.42132,-1.25677 0.009,-1.76076 0.41081,-3.30323 0.98253,-3.77031 0.62313,-0.50907 1.69123,-4.10767 1.83829,-6.19349 0.0625,-0.88644 0.0175,-2.49205 -0.1,-3.56802 -0.16944,-1.55168 -0.32306,-2.01519 -0.74279,-2.24106 -2.44673,-1.3167 -2.5136,-1.39698 -2.51255,-3.01629 10e-4,-1.72767 0.64682,-3.06168 1.7182,-3.54984 0.96729,-0.44072 0.85689,-1.35629 -0.56079,-4.65091 -0.67257,-1.56302 -1.28321,-3.34653 -1.35699,-3.96338 -0.12364,-1.0337 -0.051,-1.20463 0.92714,-2.182813 0.5837,-0.5837 1.28365,-1.06112 1.55543,-1.06092 0.43397,3.2e-4 0.48305,-0.17799 0.403,-1.46412 -0.10857,-1.74433 0.21171,-2.24041 1.44646,-2.24041 0.87659,0 0.89365,-0.0217 0.89365,-1.13771 0,-0.62574 0.14287,-1.28058 0.3175,-1.4552 0.41818,-0.41819 3.70931,-0.41819 4.1275,0 0.17462,0.17462 0.3175,0.82946 0.3175,1.4552 0,1.116 0.017,1.13771 0.89364,1.13771 1.23476,0 1.55503,0.49608 1.44646,2.24041 -0.0783,1.25753 -0.0252,1.46443 0.37576,1.46412 0.2568,-2e-4 0.91164,0.40721 1.45521,0.90535 1.41282,1.294753 1.3565,2.538403 -0.28539,6.301763 -1.43398,3.2868 -1.5485,4.20863 -0.57778,4.65091 1.06765,0.48646 1.71706,1.82278 1.71819,3.53558 9e-4,1.36391 -0.0715,1.55499 -0.78106,2.06021 -0.43013,0.30627 -1.13196,0.67885 -1.55964,0.82793 l -0.77759,0.27107 -0.18726,2.86654 c -0.10299,1.5766 -0.10777,3.26596 -0.0106,3.75415 0.44689,2.24547 1.34789,4.88753 1.77158,5.19488 0.60069,0.43575 1.01306,1.9376 1.01493,3.69636 0.001,1.08469 0.0924,1.38906 0.41648,1.38906 0.22826,0 0.9724,0.54156 1.65365,1.20347 l 1.23863,1.20346 0.0904,2.46366 c 0.0756,2.05893 0.004,2.63273 -0.43727,3.49289 -0.74202,1.44726 -1.58329,2.14785 -3.30633,2.75345 -1.29487,0.45511 -2.1697,0.52347 -6.59282,0.5152 -4.37283,-0.008 -5.30426,-0.0831 -6.53386,-0.52528 z m 9.6361,-1.03564 c 2.83098,-0.32571 4.36627,-1.00458 5.02088,-2.22011 0.28169,-0.52307 0.44964,-1.01356 0.37323,-1.08998 -0.0764,-0.0764 -0.96417,0.0359 -1.97277,0.24955 -2.50262,0.53016 -11.33685,0.54504 -13.35134,0.0225 -0.7955,-0.20635 -1.50084,-0.32072 -1.56741,-0.25414 -0.0666,0.0666 0.10943,0.54901 0.39112,1.07208 1.05937,1.96712 5.53284,2.86135 11.10629,2.22011 z m 2.13422,-4.53822 c 1.54894,-0.284 3.55433,-1.19361 3.55433,-1.61219 0,-0.42919 -1.92518,-2.3333 -2.35912,-2.3333 -0.71693,0 -1.08047,-0.56146 -1.08047,-1.66872 0,-0.88662 -0.0659,-1.00439 -0.46302,-0.82763 -0.92927,0.41361 -6.74341,0.44196 -8.46666,0.0413 l -1.65365,-0.3845 v 1.10229 c 0,1.17071 -0.35237,1.73728 -1.08046,1.73728 -0.43833,0 -2.35912,1.90604 -2.35912,2.34101 0,0.47675 1.01228,1.09846 2.39257,1.46943 1.76107,0.47332 9.19515,0.5605 11.5156,0.13505 z m -1.73734,-7.91666 c 1.60082,-0.45647 1.78549,-0.67063 1.18369,-1.3727 -0.84563,-0.98654 -1.09109,-1.56721 -1.71758,-4.0632 -0.50684,-2.0193 -0.57332,-2.82093 -0.4527,-5.45872 l 0.14139,-3.09183 -2.60134,-0.0832 -2.60133,-0.0832 0.14896,3.175 c 0.1284,2.73683 0.0669,3.50164 -0.44575,5.54188 -0.61989,2.46714 -0.87389,3.07553 -1.67888,4.02135 -0.37862,0.44485 -0.40923,0.61294 -0.14174,0.77826 1.25053,0.77287 6.30497,1.16675 8.16528,0.63629 z m 0.38156,-16.20954 c 1.75406,-0.67942 2.15444,-1.12712 1.90319,-2.12815 -0.17479,-0.69642 -0.27953,-0.81951 -1.47127,-1.72896 -0.52203,-0.39837 -0.66309,-0.78506 -0.75626,-2.07308 -0.0977,-1.35069 0.009,-1.86545 0.72797,-3.50294 0.46338,-1.05576 0.78559,-1.97649 0.71602,-2.04606 -0.0696,-0.0696 -0.81486,7.7e-4 -1.6562,0.15629 -1.81934,0.33633 -5.32492,0.35119 -6.98876,0.0296 -0.65484,-0.12656 -1.22944,-0.1917 -1.27687,-0.14477 -0.0474,0.0469 0.27999,0.91976 0.7276,1.93962 1.21025,2.75744 1.06039,5.25995 -0.35358,5.9042 -0.70778,0.32249 -1.31318,1.48902 -1.1711,2.2566 0.3076,1.66189 6.5253,2.52829 9.59926,1.33761 z m -1.19698,-12.92698 c 1.92497,-0.33092 3.42624,-1.1644 2.95182,-1.63882 -0.15709,-0.15709 -0.99344,-0.54191 -1.85856,-0.855163 l -1.57295,-0.56955 -0.08,0.821553 c -0.0661,0.67859 -0.19515,0.82155 -0.74151,0.82155 -0.62675,0 -0.66559,-0.087 -0.74032,-1.657073 -0.0853,-1.79284 -0.11646,-1.75317 1.60022,-2.03847 1.15319,-0.19165 1.40228,-0.93467 0.31333,-0.93467 -1.27072,0 -1.70239,-0.43844 -1.70239,-1.7291 0,-1.13618 -0.0303,-1.18131 -0.79375,-1.18131 -0.76343,0 -0.79375,0.0451 -0.79375,1.18131 0,1.29066 -0.43168,1.7291 -1.7024,1.7291 -1.08895,0 -0.83986,0.74302 0.31333,0.93467 1.71668,0.2853 1.68554,0.24563 1.60022,2.03847 -0.0747,1.570123 -0.11357,1.657073 -0.74032,1.657073 -0.54635,0 -0.67539,-0.14296 -0.74151,-0.82155 l -0.08,-0.821553 -1.50745,0.55696 c -2.47895,0.915923 -2.68456,1.202773 -1.35494,1.890343 1.70098,0.87962 4.69324,1.12125 7.63103,0.61623 z m 22.378956,42.90665 c -1.45318,-0.3157 -2.44541,-0.71858 -3.34185,-1.35689 -0.74367,-0.52955 -0.75919,-0.59144 -0.75919,-3.0273 v -2.48671 l 0.93486,-0.93486 c 0.51417,-0.51417 1.04996,-0.93486 1.19062,-0.93486 0.14068,0 0.25577,-0.48215 0.25577,-1.07145 0,-0.86802 0.17714,-1.25384 0.93298,-2.03211 1.13897,-1.17275 1.16152,-1.26832 1.24714,-5.28542 0.068,-3.18958 0.0612,-3.23151 -0.54926,-3.38419 -1.09341,-0.27349 -1.89544,-1.3207 -1.89544,-2.4749 0,-0.86068 0.16183,-1.18504 0.92604,-1.85602 0.81786,-0.7181 0.92548,-0.96084 0.92124,-2.07793 -0.003,-0.90082 -0.23185,-1.67681 -0.79375,-2.69619 -1.05082,-1.90642 -1.07152,-3.36242 -0.0614,-4.31556 0.9269,-0.87457 2.86081,-1.48615 3.30256,-1.04441 0.40107,0.40108 2.18415,0.39824 2.82905,-0.005 0.38937,-0.24317 0.75962,-0.23769 1.65005,0.0244 2.67048,0.78613 3.30118,2.64249 1.81428,5.34004 -0.56189,1.01938 -0.79033,1.79537 -0.79375,2.69619 -0.004,1.11709 0.10339,1.35983 0.92125,2.07793 0.76421,0.67098 0.92604,0.99534 0.92604,1.85602 0,1.1542 -0.80203,2.20141 -1.89544,2.4749 -0.61044,0.15268 -0.61725,0.19461 -0.54926,3.38419 0.0856,4.0171 0.10817,4.11267 1.24714,5.28542 0.75584,0.77827 0.93298,1.16409 0.93298,2.03211 0,0.5893 0.11509,1.07145 0.25576,1.07145 0.14067,0 0.67645,0.42069 1.19063,0.93486 l 0.93486,0.93486 v 2.48671 c 0,2.44857 -0.0119,2.49518 -0.77627,3.03945 -1.50395,1.07091 -2.91384,1.39321 -6.49977,1.48582 -1.89177,0.0489 -3.91584,-0.0146 -4.49792,-0.14108 z m 8.31153,-1.97497 c 1.7292,-0.62597 1.87493,-0.82284 1.87493,-2.53284 0,-1.48439 -0.0304,-1.54811 -1.19063,-2.49886 -0.77271,-0.63318 -1.19062,-1.18572 -1.19062,-1.57416 0,-0.58672 -0.0353,-0.59371 -1.78594,-0.35377 -1.81882,0.24928 -4.85101,0.14167 -5.68854,-0.20188 -0.36929,-0.15148 -0.46302,-0.0539 -0.46302,0.48213 0,0.47653 -0.34974,0.95864 -1.20218,1.65714 l -1.20217,0.9851 0.0777,1.61231 c 0.0754,1.56479 0.10618,1.62623 1.04385,2.08468 0.53139,0.2598 1.48389,0.58205 2.11667,0.71611 1.65483,0.35058 6.22692,0.1247 7.60996,-0.37596 z m -3.23116,-8.51893 1.58612,-0.16579 -0.48897,-1.01206 c -0.38993,-0.80706 -0.48971,-1.64437 -0.49259,-4.13369 -0.005,-4.35707 0.0142,-4.31226 -1.84847,-4.31226 -1.86077,0 -1.84341,-0.0401 -1.84847,4.26716 -0.002,2.12901 -0.12585,3.36909 -0.40049,4.0264 -0.21828,0.52242 -0.39687,1.00493 -0.39687,1.07224 0,0.34214 1.88715,0.46731 3.88974,0.258 z m 2.35361,-11.86524 c 0.8038,-0.52667 0.72557,-0.9 -0.30847,-1.47202 -0.75369,-0.41694 -0.77766,-0.49336 -0.85186,-2.71681 -0.0534,-1.60001 0.0379,-2.50852 0.30359,-3.022 l 0.37994,-0.73419 h -3.11952 -3.11951 l 0.37874,0.73419 c 0.2646,0.51296 0.35572,1.42775 0.30238,3.03568 -0.07,2.10957 -0.12785,2.32708 -0.69394,2.60859 -1.57069,0.7811 -1.22774,1.62593 0.80641,1.98654 1.80269,0.31958 5.15653,0.0817 5.92224,-0.41998 z m -1.38236,-9.65056 c 1.43494,-0.33292 1.74995,-0.72189 0.85896,-1.06064 -1.58374,-0.60214 -1.93671,-0.60748 -2.08731,-0.0316 -0.20582,0.78706 -2.02977,0.79704 -2.235,0.0122 -0.14359,-0.54908 -0.30451,-0.54595 -1.86067,0.0362 -0.79876,0.29882 -0.752,0.45783 0.26459,0.89968 0.97703,0.42466 3.5361,0.49756 5.05943,0.14413 z m 18.68692,31.82916 c -2.00142,-0.69003 -2.38125,-1.21861 -2.38125,-3.31377 0,-1.69146 0.0584,-1.86979 0.92604,-2.83022 0.50933,-0.56376 0.92605,-1.23422 0.92605,-1.48991 0,-0.25569 0.37321,-1.11721 0.82936,-1.91447 0.76942,-1.3448 0.81764,-1.57516 0.66714,-3.1868 -0.12981,-1.39014 -0.30303,-1.88419 -0.86701,-2.47286 -0.94696,-0.98841 -1.18245,-3.0942 -0.48985,-4.38028 0.73113,-1.35762 1.87557,-1.93635 3.8291,-1.93635 1.95354,0 3.09798,0.57873 3.82911,1.93635 0.6926,1.28608 0.45711,3.39187 -0.48985,4.38028 -0.56398,0.58867 -0.7372,1.08272 -0.86701,2.47286 -0.1505,1.61164 -0.10228,1.842 0.66714,3.1868 0.45615,0.79726 0.82936,1.65878 0.82936,1.91447 0,0.25569 0.41672,0.92615 0.92605,1.48991 0.86769,0.96043 0.92604,1.13876 0.92604,2.83022 0,2.11418 -0.38258,2.63215 -2.45664,3.32599 -1.62432,0.5434 -5.21092,0.53695 -6.80378,-0.0122 z m 6.65114,-1.85111 c 0.51177,-0.29807 0.92627,-0.77189 0.97611,-1.1158 l 0.0866,-0.59774 -1.06827,0.545 c -1.29096,0.65859 -4.31481,0.74337 -6.20667,0.174 -0.98452,-0.29629 -1.23268,-0.30281 -1.23268,-0.0324 0,1.54245 5.30367,2.27402 7.44489,1.02693 z m -0.62785,-2.89416 c 0.58566,-0.38373 0.60276,-0.45318 0.2167,-0.87978 -0.23054,-0.25474 -0.41916,-0.71548 -0.41916,-1.02387 0,-0.51029 -0.0726,-0.53539 -0.8078,-0.27911 -0.4443,0.15488 -1.51586,0.23038 -2.38125,0.16779 -1.27253,-0.0921 -1.57344,-0.0379 -1.57344,0.28289 0,0.21819 -0.25546,0.66863 -0.56769,1.00097 l -0.56768,0.60427 0.63383,0.24075 c 0.3486,0.13242 0.87195,0.30778 1.16299,0.3897 0.90272,0.25409 3.63512,-0.0657 4.3035,-0.50361 z m -1.37003,-3.88195 c 0.0614,-0.0614 -0.0246,-0.50245 -0.19112,-0.98011 -0.19241,-0.55193 -0.24767,-1.79174 -0.15163,-3.40152 0.1242,-2.08179 0.24311,-2.60639 0.66747,-2.94474 0.60682,-0.48384 1.10744,-1.38892 1.10744,-2.00216 0,-0.23904 -0.34803,-0.78265 -0.7734,-1.20802 -1.08908,-1.08907 -2.65579,-1.08907 -3.74487,0 -0.42537,0.42537 -0.7734,0.96898 -0.7734,1.20802 0,0.61476 0.50111,1.51874 1.11162,2.00531 0.7302,0.58196 1.02414,5.31192 0.40698,6.54903 -0.29291,0.58716 -0.32164,0.85367 -0.10272,0.95298 0.32601,0.14789 2.25832,0.007 2.44363,-0.17879 z"
       id="path125" /></g></svg>
