<svg xmlns="http://www.w3.org/2000/svg" width="625" height="115" viewBox="0 0 625 115">
    <g>
        <path d="M57.10448,99.36764c-20.89127,0-34.97439-16.40695-34.97439-40.0877,0-25.84861,14.08312-43.64758,34.97439-43.64758,15.6302,0,26.7734,10.215,30.79688,28.01522l17.79649-10.9898C98.42411,11.45298,80.16348,0,57.10448,0,22.74867,0,0,23.68075,0,59.27994c0,33.43258,22.74867,55.72006,57.10448,55.72006,23.52335,0,39.77276-11.60806,50.2953-31.57489l-17.79628-10.67963c-4.33277,15.94274-15.47597,26.62216-32.49902,26.62216Z" style="fill: #FFF;"></path>
        <path d="M134.31954,2.16661h-19.19037V112.83339h20.11907c-.77468-6.81042-.9287-13.77488-.9287-20.12087V2.16661Z" style="fill: #FFF;"></path>
        <path d="M187.70859,100.76091c-12.84409,0-23.83223-8.6681-24.45061-26.62216h64.37843c.30908-29.09811-13.61877-47.67167-40.39217-47.67167-25.84345,0-43.79479,18.72761-43.79479,46.4337,0,27.24042,19.49821,42.09923,44.25915,42.09923,16.40468,0,30.95194-7.11955,41.01034-22.13344l-15.93908-10.05992c-3.40532,9.44145-11.60776,17.95426-25.07126,17.95426Zm-.46435-60.51916c12.22592,0,18.88025,8.6679,20.58343,20.43125h-43.33189c3.09499-12.84728,11.45125-20.43125,22.74847-20.43125Z" style="fill: #FFF;"></path>
        <path d="M313.83211,96.27218V56.49361c0-17.79897-9.90437-30.02654-33.58134-30.02654-17.17811,0-33.27246,7.11955-44.72495,21.82306l13.30865,10.83451c7.4288-12.38161,18.41694-18.41848,29.71291-18.41848,11.1434,0,16.09538,6.50129,16.09538,16.40695v.92884c-36.5223,3.09546-59.42603,13.93017-59.42603,34.05084,0,13.31067,10.36873,22.9072,27.23651,22.9072,15.63,0,26.61813-8.6679,32.18952-20.27617v1.54835c0,12.22777,6.80939,18.72782,17.33214,18.72782,3.7144,0,7.11847-.77355,10.2147-2.16661l2.63064-12.6922c-2.7857,1.23797-4.33381,1.54835-6.65536,1.54835-2.93972,0-4.33277-1.85748-4.33277-5.41736Zm-19.18933-22.13344c0,15.78744-13.15442,26.00245-26.92825,26.00245-7.42776,0-12.53501-4.02409-12.53501-10.215,0-11.14364,14.39221-16.561,39.46326-18.8829v3.09546Z" style="fill: #FFF;"></path>
        <path d="M413.49401,55.56498c0-15.94149-9.28621-29.0979-29.40279-29.0979-15.01286,0-28.63164,9.90566-34.66655,24.91852V28.63369h-19.18913V112.83339h19.18913v-38.07514c0-20.27617,14.8578-33.27853,27.85592-33.27853,11.91663,0,17.17811,6.50129,17.17811,17.49108v53.86258h19.96381c-.77344-6.81042-.9285-13.77488-.9285-20.12087V55.56498Z" style="fill: #FFF;"></path>
        <path d="M478.48936,0c-35.43978,0-57.10593,25.84736-57.10593,57.57754,0,31.5751,21.82121,57.42246,57.41377,57.42246,35.28472,0,56.3325-26.15774,56.3325-57.57754,0-31.5751-21.35562-57.42246-56.64034-57.42246Zm.46311,99.36764c-21.51089,0-35.59277-18.26464-35.59277-41.7901,0-23.37141,13.77404-41.94518,35.12966-41.94518,21.20035,0,34.66406,18.57377,34.66406,41.7901s-13.15338,41.94518-34.20096,41.94518Z" style="fill: #FFF;"></path>
        <path d="M611.35221,51.20916c0-14.74789-13.63059-24.53993-33.44162-24.53993-17.90159,0-30.91504,9.59861-37.26174,23.08571l14.72119,9.27102c2.72724-9.63551,10.54389-17.63145,21.81168-17.63145,9.21365,0,14.71974,4.99461,14.71974,11.08683,0,20.46981-44.99589,22.55266-51.25033,47.58666v12.76538h69.97469l-.00249-13.45165h-50.22109c11.11832-18.58434,50.94996-18.90384,50.94996-48.17258Z" style="fill: #FFF;"></path>
    </g>
</svg>