<svg id="Layer_1" data-name="Layer 1" xmlns="http://www.w3.org/2000/svg" viewBox="0 0 219.6 120.81"><defs><style>.cls-1{fill:none;stroke:#fff;stroke-linecap:round;stroke-miterlimit:10;stroke-width:10px;}</style></defs><title>ndlogo</title><path class="cls-1" d="M162.68,139.52l-61.25-48c-2.63-2.12-8.38.66-8.35,4l.89,99c0,3.12,3.16,8.42,8.53,4.68l23.79-17.68" transform="translate(-88.08 -84.74)"/><path class="cls-1" d="M130,151.77l61.25,48c2.63,2.12,8.39-.67,8.36-4.05l-.9-99c0-3.13-3.16-8.43-8.53-4.69L166.41,109.7" transform="translate(-88.08 -84.74)"/><path class="cls-1" d="M224.53,122.51l.34-28.81a4,4,0,0,1,4.07-4l55.19,1.31a19,19,0,0,1,18.55,19v71.51a19,19,0,0,1-19,19H228.53a4,4,0,0,1-4-4.05l.34-28.73" transform="translate(-88.08 -84.74)"/><path class="cls-1" d="M102.5,199.26" transform="translate(-88.08 -84.74)"/></svg>