<svg id="Layer_1" data-name="Layer 1" xmlns="http://www.w3.org/2000/svg" viewBox="0 0 1460.81 1080">
    <defs>
        <style>.cls-1{fill:none;}.cls-2{fill:#fff;}.cls-3{fill:#fff;}.cls-4{fill:#fff;}.cls-5{fill:#fff;}</style>
    </defs>
    <rect class="cls-1" width="1460.81" height="1080"/>
        <path class="cls-2" d="M486.47,598.35Q468.31,639.69,450.12,681c-9.34,21.13-18.8,42.21-28.21,63.32-2.52,2.5-4.73,5.45-7.61,7.43-18.11,12.45-36.42,24.6-54.56,37C337.29,804.12,315,819.62,292.54,835c-5.3,3.65-10.68,7.18-17.35,11.65,3.07.15,4.38.27,5.68.27,66.67.42,133.34.93,200,1.19,48.28.19,96.56.1,144.83,0a140.23,140.23,0,0,0,21-1.38,153,153,0,0,0,50.35-17.52c25.77-14.16,46-34.45,64.74-56.56a86.48,86.48,0,0,0,9.91-14.53c3-5.56,5.07-11.62,7.63-17.43C788.11,720.78,797,700.91,805.7,681c13-29.92,25.87-59.92,38.9-89.84,10.14-23.28,20.52-46.45,30.68-69.72,11.69-26.79,23.19-53.66,34.88-80.46,10.15-23.27,20.47-46.46,30.68-69.71,2-4.63,3.91-9.33,6.15-14.7a15.09,15.09,0,0,0-2.86.84q-29.42,19-58.8,38c-24,15.48-48.06,30.88-72,46.45-3.91,2.55-7.38,5.79-11.06,8.71-.71-3.57-3.55-2.12-5.5-2.13-15.24-.07-30.48,0-45.72,0l-179.47.43H554.84c-8.73-18.7-17.1-36.57-25.42-54.46q-30.6-65.81-61.15-131.61c-.48-1-.83-2.11-1.23-3.17,2.68,1,5.68,1.45,8,3q66.12,43.54,132.05,87.4a21.51,21.51,0,0,0,12.65,3.82q148.86-.07,297.73.1c3.36,0,6.72.81,10.09.92,8.35.27,17.05,1.65,24.57-3.16q56.11-35.86,112-72.06c9.33-6,18.57-12.18,28-18.08,1.8-1.13,4-3.78,6.4-.65q-24.19,54.42-48.41,108.82Q989.59,505.32,929,640.87c-22.43,50.22-44.06,100.81-67.35,150.63-22.82,48.8-56.11,89.19-102.51,117.7-34.29,21.07-71.73,31.58-112,32-5.46.06-10.92-.08-16.38-.12-1.37,0-2.73.09-4.1.09q-139.26,0-278.53.08-100,0-200-.17h-33.4c3.5-7.57,6.59-14.32,9.74-21.06q43.7-93.42,87.31-186.89a42.84,42.84,0,0,0,4-15c1.56-24.31-2.51-47.43-15.42-68.64C189.63,632,178.08,615.17,163,601a17.33,17.33,0,0,1-1.95-2.66c2.2.37,4.52.4,6.58,1.16q44,16.29,87.86,32.75c11.66,4.34,23.36,8.57,35,12.91,15.69,5.85,31.36,11.75,47.27,17.72,8.72-4.07,17.3-8.18,26-12.09q39.39-17.76,78.84-35.37c13-5.84,26.06-11.72,39.17-17.4C483.05,597.5,484.89,598.22,486.47,598.35Z" transform="translate(-78 -27)"/><path class="cls-3" d="M802.27,450.56c3.68-2.92,7.15-6.16,11.06-8.71,23.94-15.57,48-31,72-46.45q29.42-19,58.8-38a15.09,15.09,0,0,1,2.86-.84c-2.24,5.37-4.12,10.07-6.15,14.7-10.21,23.25-20.53,46.44-30.68,69.71-11.69,26.8-23.19,53.67-34.88,80.46-10.16,23.27-20.54,46.44-30.68,69.72C831.57,621,818.73,651,805.7,681c-8.69,19.95-17.59,39.82-26.36,59.74-2.56,5.81-4.62,11.87-7.63,17.43a86.48,86.48,0,0,1-9.91,14.53c-18.71,22.11-39,42.4-64.74,56.56a153,153,0,0,1-50.35,17.52,140.23,140.23,0,0,1-21,1.38c-48.27.11-96.55.2-144.83,0-66.67-.26-133.34-.77-200-1.19-1.3,0-2.61-.12-5.68-.27,6.67-4.47,12.05-8,17.35-11.65,22.41-15.4,44.75-30.9,67.2-46.24,18.14-12.4,36.45-24.55,54.56-37,2.88-2,5.09-4.93,7.61-7.43.55.89.94,2.32,1.69,2.55a16.5,16.5,0,0,0,4.73.24c47.37,0,94.74,0,142.1-.13,13,0,26-.26,38.84-1.33,20.82-1.74,39.45-9.19,55.45-23s27.13-30.89,35.69-50q19.33-43.07,39-86,27.47-60.22,55-120.4C796.91,461,799.66,455.83,802.27,450.56Z" transform="translate(-78 -27)"/><path class="cls-4" d="M1145,605.1c-1.93-5-3.55-10.06-5.83-14.85-12.21-25.75-24.61-51.41-36.91-77.12-10.36-21.66-20.69-43.34-31.17-65.3,11.26-26.06,22.62-52.36,34-78.67.8-1.86,1.41-3.79,2.11-5.69a12.18,12.18,0,0,1,1.17,1.63q33.56,65.72,67.1,131.45c7.85,15.36,15.82,30.67,23.66,46q22.2,43.51,44.32,87,16.07,31.51,32.17,63,30.38,59.37,60.74,118.75c12.49,24.44,24.85,48.93,37.46,73.31a16.52,16.52,0,0,0,5.82,6.26c9.09,5.54,18.36,10.78,27.66,15.95,11.3,6.26,22.76,12.25,34.06,18.52,17.62,9.78,35.16,19.71,52.73,29.58-1.44.41-2.88,1.2-4.31,1.17-11.11-.23-22.2-.72-33.31-.93-9.78-.19-19.57-.12-29.35-.15-29.13-.09-58.26-.06-87.39-.32-10-.09-19.89-.91-30.07-1.41q-45.69-98.55-91.66-197.72H934.37c3.1-7.37,5.84-14.12,8.76-20.78q12.57-28.61,25.29-57.14a17.94,17.94,0,0,1,1.4-2.22c1.73,3.3,4.83,1.92,7.32,1.92q82.53.12,165.07.06,57.3,0,114.59,0c2.28,0,4.55-.26,6.82-.4a8.28,8.28,0,0,0-3.58-4.15c-6.25-3.64-12.57-7.18-18.81-10.85q-30.42-17.87-60.8-35.81C1168.58,619.22,1156.77,612.14,1145,605.1Z" transform="translate(-78 -27)"/><path class="cls-5" d="M1494,955c-17.57-9.87-35.11-19.8-52.73-29.58-11.3-6.27-22.76-12.26-34.06-18.52-9.3-5.17-18.57-10.41-27.66-15.95a16.52,16.52,0,0,1-5.82-6.26c-12.61-24.38-25-48.87-37.46-73.31q-30.33-59.39-60.74-118.75-16.1-31.49-32.17-63-22.17-43.51-44.32-87c-7.84-15.36-15.81-30.67-23.66-46q-33.57-65.71-67.1-131.45a12.18,12.18,0,0,0-1.17-1.63c2.3-5.91,4.41-11.89,6.92-17.71q17.92-41.64,36.06-83.2c.78-1.81,1.79-3.52,3.22-6.3,3.37,6.72,6.32,12.5,9.17,18.33q52.11,106.49,104.19,213,39.54,80.84,79.09,161.67,49.92,101.88,99.91,203.73,23.55,48,47.16,95.93c.88,1.8,1.55,3.7,2.29,5.57,0,.08-.26.37-.44.45A1.9,1.9,0,0,1,1494,955Z" transform="translate(-78 -27)"/><path class="cls-3" d="M1098.54,260.91c-2.44-3.13-4.6-.48-6.4.65-9.4,5.9-18.64,12.07-28,18.08q-56,36.08-112,72.06c-7.52,4.81-16.22,3.43-24.57,3.16-3.37-.11-6.73-.92-10.09-.92q-148.86-.15-297.73-.1A21.51,21.51,0,0,1,607.09,350q-65.9-43.9-132-87.4c-2.32-1.53-5.32-2-8-3-.38-1.14-.75-2.28-1.3-3.93h635.64Z" transform="translate(-78 -27)"/><path class="cls-5" d="M1145,605.1c11.82,7,23.63,14.12,35.48,21.13q30.38,18,60.8,35.81c6.24,3.67,12.56,7.21,18.81,10.85a8.28,8.28,0,0,1,3.58,4.15c-2.27.14-4.54.4-6.82.4q-57.29,0-114.59,0-82.53,0-165.07-.06c-2.49,0-5.59,1.38-7.32-1.92,4.33-10.41,8.59-20.86,13-31.24,5.33-12.49,10.81-24.92,16.5-38h8.16q63.68-.06,127.36-.16C1138.23,606.06,1141.59,605.43,1145,605.1Z" transform="translate(-78 -27)"/><path class="cls-3" d="M486.47,598.35c-1.58-.13-3.42-.85-4.7-.3-13.11,5.68-26.14,11.56-39.17,17.4q-39.44,17.67-78.84,35.37c-8.67,3.91-17.25,8-26,12.09-15.91-6-31.58-11.87-47.27-17.72-11.66-4.34-23.36-8.57-35-12.91q-43.93-16.37-87.86-32.75c-2.06-.76-4.38-.79-6.58-1.16l.13,0-.42-.92-.73.64-3.79-2.26.25-1H487.86Z" transform="translate(-78 -27)"/><path class="cls-5" d="M148.08,941.09q100,.09,200,.17,139.26,0,278.53-.08c1.37,0,2.73-.06,4.1-.09-12.26.39-24.51,1.06-36.76,1.12-63.07.32-126.14.69-189.2.64-74.91-.05-149.81-.47-224.72-.82C169.4,942,158.74,941.41,148.08,941.09Z" transform="translate(-78 -27)"/><path class="cls-2" d="M160,598.11l.73-.64.42.92-.64.13Z" transform="translate(-78 -27)"/>
</svg>