<?xml version="1.0" encoding="UTF-8" standalone="no"?>
<!-- Created with Inkscape (http://www.inkscape.org/) -->

<svg
   width="135.46666mm"
   height="11.869986mm"
   viewBox="0 0 135.46666 11.869985"
   version="1.1"
   id="svg5"
   xml:space="preserve"
   inkscape:export-filename="line.svg"
   inkscape:export-xdpi="96"
   inkscape:export-ydpi="96"
   xmlns:inkscape="http://www.inkscape.org/namespaces/inkscape"
   xmlns:sodipodi="http://sodipodi.sourceforge.net/DTD/sodipodi-0.dtd"
   xmlns="http://www.w3.org/2000/svg"
   xmlns:svg="http://www.w3.org/2000/svg"><sodipodi:namedview
     id="namedview7"
     pagecolor="#ffffff"
     bordercolor="#141414"
     borderopacity="0.25"
     inkscape:showpageshadow="2"
     inkscape:pageopacity="0.0"
     inkscape:pagecheckerboard="0"
     inkscape:deskcolor="#d1d1d1"
     inkscape:document-units="mm"
     showgrid="false" /><defs
     id="defs2" /><g
     inkscape:label="Layer 1"
     inkscape:groupmode="layer"
     id="layer1"
     transform="translate(-7.9364089,-115.91359)"><path
       style="fill:#141414;stroke-width:0.264583"
       d="m 7.9364089,123.71106 v -4.07252 l 0.9921874,0.51905 c 1.9270937,1.00812 4.2890347,0.25832 7.9358197,-2.51922 2.248455,-1.71252 2.650335,-1.87029 4.179825,-1.64093 1.176444,0.17642 1.504216,0.4578 3.39556,2.91501 1.987295,2.58188 4.797627,2.19925 9.357947,-1.27408 2.248455,-1.71252 2.650336,-1.87029 4.179826,-1.64093 1.176444,0.17642 1.504215,0.4578 3.39556,2.91501 1.987295,2.58188 4.797628,2.19925 9.357946,-1.27408 2.248456,-1.71252 2.650337,-1.87029 4.179827,-1.64093 1.176443,0.17642 1.504214,0.4578 3.395559,2.91501 1.987296,2.58188 4.797629,2.19925 9.357947,-1.27408 2.248455,-1.71252 2.650336,-1.87029 4.179826,-1.64093 1.176444,0.17642 1.504215,0.4578 3.39556,2.91501 1.987295,2.58188 4.797628,2.19925 9.357946,-1.27408 2.248456,-1.71252 2.650337,-1.87029 4.179827,-1.64093 1.176443,0.17642 1.504214,0.4578 3.395559,2.91501 1.987296,2.58188 4.797629,2.19925 9.357949,-1.27408 2.24845,-1.71252 2.65033,-1.87029 4.17982,-1.64093 1.17645,0.17642 1.50422,0.4578 3.39556,2.91501 1.9873,2.58188 4.79763,2.19925 9.35795,-1.27408 2.24846,-1.71252 2.65034,-1.87029 4.17983,-1.64093 1.17644,0.17642 1.50421,0.4578 3.39556,2.91501 1.98729,2.58188 4.79763,2.19925 9.35794,-1.27408 2.2423,-1.70783 2.65212,-1.87003 4.15533,-1.64461 1.15837,0.17371 1.7122,0.62877 3.13741,2.5779 0.70148,0.95933 0.71259,1.03877 0.71259,5.09323 v 4.11869 H 75.669738 7.9364089 Z"
       id="path298" /></g></svg>
