<?xml version="1.0" encoding="UTF-8" standalone="no"?>
<!-- Created with Inkscape (http://www.inkscape.org/) -->

<svg
   width="149.35121mm"
   height="69.930634mm"
   viewBox="0 0 149.35121 69.930631"
   version="1.1"
   id="svg5"
   xml:space="preserve"
   inkscape:export-filename="peloton.svg"
   inkscape:export-xdpi="96"
   inkscape:export-ydpi="96"
   xmlns:inkscape="http://www.inkscape.org/namespaces/inkscape"
   xmlns:sodipodi="http://sodipodi.sourceforge.net/DTD/sodipodi-0.dtd"
   xmlns="http://www.w3.org/2000/svg"
   xmlns:svg="http://www.w3.org/2000/svg"><sodipodi:namedview
     id="namedview7"
     pagecolor="#ffffff"
     bordercolor="#000000"
     borderopacity="0.25"
     inkscape:showpageshadow="2"
     inkscape:pageopacity="0.0"
     inkscape:pagecheckerboard="0"
     inkscape:deskcolor="#d1d1d1"
     inkscape:document-units="mm"
     showgrid="false" /><defs
     id="defs2" /><g
     inkscape:label="Layer 1"
     inkscape:groupmode="layer"
     id="layer1"
     transform="translate(3.891443,-138.38902)"><path
       style="fill:#ffffff;stroke-width:0.2032"
       d="m 20.585754,207.91607 c -1.053167,-0.47838 -1.788786,-1.36098 -2.259167,-2.71054 -0.534839,-1.53449 -0.540787,-6.89447 -0.0093,-8.41729 0.707167,-2.02634 2.431906,-3.12062 4.918521,-3.12062 3.530799,0 4.9784,1.7833 4.9784,6.13288 v 1.99512 h -3.888104 -3.888102 l 0.09825,1.37322 c 0.05404,0.75527 0.255278,1.67688 0.447198,2.04801 0.361944,0.69992 1.339375,1.25237 2.215778,1.25237 0.814842,0 1.835437,-0.84171 2.163911,-1.78462 l 0.298534,-0.85698 h 1.302235 1.302238 l -0.132954,0.83145 c -0.279709,1.7492 -1.18875,2.87739 -2.743309,3.40467 -1.100054,0.37312 -3.843207,0.2888 -4.804085,-0.14767 z m 5.12333,-9.29259 c -0.216004,-2.31313 -1.058093,-3.21171 -2.867767,-3.06014 -0.769939,0.0645 -1.111226,0.2087 -1.463741,0.61852 -0.549256,0.63855 -0.882331,1.73941 -0.883882,2.92136 l -0.0011,0.8636 h 2.670983 2.670984 z m 35.628124,9.35085 c -2.18648,-0.94818 -2.995161,-3.23336 -2.790714,-7.88602 0.125489,-2.85581 0.491606,-4.10949 1.492374,-5.11025 1.734164,-1.73417 5.942021,-1.73176 7.678168,0.004 1.149134,1.14913 1.441921,2.36752 1.441921,6.00037 0,2.5346 -0.07303,3.35914 -0.374026,4.22271 -0.801291,2.29897 -2.054943,3.08552 -4.909174,3.08007 -1.178555,-0.002 -2.081156,-0.11292 -2.538549,-0.31127 z m 4.294846,-2.24419 c 0.789557,-0.75644 1.075031,-2.06235 1.0822,-4.95052 0.0072,-2.88183 -0.219905,-3.79076 -1.140452,-4.56535 -0.487609,-0.4103 -0.831915,-0.51465 -1.698045,-0.51465 -1.298647,0 -2.155161,0.59311 -2.577236,1.78465 -0.36199,1.02192 -0.352718,5.52911 0.01398,6.79874 0.30261,1.04772 1.017963,1.90408 1.715274,2.05339 0.880015,0.18842 2.062013,-0.0867 2.604272,-0.60626 z m 9.758695,2.13187 c -1.765911,-0.87411 -2.472592,-2.84022 -2.472592,-6.87919 0,-4.03329 0.641338,-5.76598 2.500971,-6.75682 0.700615,-0.3733 1.179103,-0.45412 2.695468,-0.45532 1.672545,-0.001 1.922034,0.0504 2.688385,0.55757 0.993105,0.6572 1.589828,1.71868 1.782444,3.17069 l 0.138688,1.04548 h -1.346978 -1.346979 v -0.79721 c 0,-1.17643 -0.790053,-2.04759 -1.856953,-2.04759 -1.107919,0 -1.878897,0.4505 -2.332047,1.36265 -0.324496,0.65319 -0.382467,1.23654 -0.379518,3.81895 0.0031,2.7012 0.05415,3.1586 0.448809,4.02006 0.762395,1.66415 2.518754,2.01699 3.606329,0.72448 0.282484,-0.33572 0.570963,-0.96907 0.641065,-1.40747 l 0.127457,-0.79707 h 1.193229 c 1.166512,0 1.193205,0.0125 1.192095,0.5588 -0.0032,1.59767 -0.992057,3.17431 -2.460731,3.92357 -1.121313,0.57205 -3.623056,0.55047 -4.819142,-0.0416 z m 12.968545,-0.0212 c -0.369473,-0.25146 -0.863058,-0.71517 -1.096854,-1.03047 -0.405918,-0.54743 -0.42787,-0.85207 -0.486869,-6.7564 l -0.06179,-6.18313 h 1.23019 1.230183 v 5.28973 c 0,5.67587 0.0954,6.31584 1.03975,6.97731 0.26019,0.18225 0.86103,0.33136 1.33519,0.33136 1.07726,0 2.18779,-0.889 2.49579,-1.99792 0.11425,-0.41132 0.20751,-2.95785 0.20814,-5.68302 l 0.001,-4.93774 1.1684,0.0609 1.1684,0.0609 0.0534,7.0612 0.0534,7.0612 h -1.22181 -1.22183 v -0.8402 -0.84021 l -0.42561,0.54108 c -0.71076,0.90348 -1.8217,1.34253 -3.39713,1.34253 -1.11781,0 -1.53602,-0.0923 -2.07221,-0.4572 z m 13.698576,-0.0289 c -1.27515,-0.59375 -1.8956,-1.5194 -2.05525,-3.0662 l -0.115716,-1.12127 h 1.349226 c 1.22087,0 1.34922,0.0393 1.34922,0.41293 0,0.90124 0.5824,1.83164 1.34634,2.15083 2.16664,0.90529 4.36873,-1.40422 2.76846,-2.9035 -0.30734,-0.28795 -1.38176,-0.91946 -2.3876,-1.40336 -3.03283,-1.45906 -4.00929,-2.52607 -4.00929,-4.38109 0,-1.39645 0.77217,-2.63724 2.02522,-3.25429 0.79834,-0.39314 1.28872,-0.47672 2.79687,-0.47672 1.62686,0 1.93323,0.0614 2.77449,0.55593 1.01379,0.59596 1.79751,1.84339 1.79751,2.86102 0,0.53446 -0.026,0.54545 -1.28863,0.54545 h -1.28864 l -0.24316,-0.81162 c -0.61659,-2.05798 -4.08837,-1.731 -4.08837,0.38506 0,0.76836 0.4544,1.13132 3.20308,2.55852 3.00662,1.56114 3.56115,2.18578 3.66455,4.12789 0.1,1.87757 -0.47032,2.95722 -1.9781,3.7449 -0.9337,0.48776 -1.30598,0.56139 -2.82993,0.55966 -1.41751,-0.002 -1.95383,-0.0947 -2.79028,-0.48414 z m 13.42228,0.10418 c -1.05317,-0.47838 -1.78879,-1.36098 -2.25917,-2.71054 -0.30128,-0.8644 -0.37377,-1.68567 -0.37273,-4.22271 0.001,-3.63381 0.29453,-4.85427 1.44062,-6.00037 1.66139,-1.66139 5.91624,-1.74779 7.44551,-0.15121 0.93834,0.97965 1.22974,1.98161 1.33105,4.57678 l 0.0932,2.3876 h -3.91314 -3.91315 l 0.0982,1.37322 c 0.054,0.75527 0.25528,1.67688 0.4472,2.04801 0.36194,0.69992 1.33937,1.25237 2.21578,1.25237 0.81484,0 1.83543,-0.84171 2.16391,-1.78462 l 0.29853,-0.85698 h 1.30224 1.30223 l -0.13295,0.83145 c -0.27971,1.7492 -1.18875,2.87739 -2.74331,3.40467 -1.10005,0.37312 -3.84321,0.2888 -4.80408,-0.14767 z m 5.19,-8.72517 c 0,-1.10434 -0.53097,-2.74754 -1.03531,-3.20395 -0.32249,-0.29186 -0.73311,-0.38893 -1.64521,-0.38893 -1.07415,0 -1.27138,0.065 -1.69641,0.55914 -0.56898,0.66148 -0.90356,1.75048 -0.90513,2.94606 l -0.001,0.8636 h 2.6416 2.6416 z m 8.4328,8.82027 c -0.8243,-0.36636 -1.41413,-1.04381 -1.96395,-2.25568 -0.39951,-0.88057 -0.47012,-1.42866 -0.53847,-4.17955 -0.11215,-4.51394 0.38364,-6.24041 2.09599,-7.2987 1.53575,-0.94914 4.22427,-0.66295 5.17945,0.55136 l 0.40858,0.51943 v -3.68501 -3.685 h 1.2192 1.2192 v 10.0584 10.0584 h -1.2192 -1.2192 l -0.005,-0.762 -0.005,-0.762 -0.35767,0.46478 c -0.71394,0.92773 -1.47916,1.26017 -2.88449,1.25313 -0.72644,-0.004 -1.59512,-0.12854 -1.9304,-0.27756 z m 4.19515,-2.32711 c 0.70488,-0.78164 0.98645,-2.17387 0.98645,-4.87756 0,-3.79747 -0.68834,-5.10688 -2.68463,-5.10688 -2.02919,0 -2.69726,1.55509 -2.56525,5.97119 0.0581,1.94275 0.15869,2.63293 0.47733,3.27441 0.78431,1.57891 2.69267,1.95132 3.7861,0.73884 z M -0.32890512,207.84082 C -0.50254312,207.305 -3.688238,194.2337 -3.688238,194.05706 c 0,-0.22247 2.3727349,-0.25368 2.5091219,-0.033 0.05209,0.0843 0.62395498,2.69032 1.27081298,5.7912 0.646858,3.10088 1.23136102,5.63796 1.29889502,5.63796 0.06753,0 0.317432,-0.75438 0.555327,-1.6764 0.237895,-0.92202 0.91014,-3.53153 1.493878,-5.79892 l 1.06134,-4.12252 1.645713,0.0585 1.645712,0.0585 0.559724,2.3368 c 0.307849,1.28524 0.951439,3.98059 1.430201,5.98967 l 0.8704751,3.65288 0.973593,-4.26248 c 0.535476,-2.34436 1.157378,-5.06257 1.382004,-6.04047 l 0.408411,-1.778 h 1.200995 c 0.902151,0 1.200996,0.0718 1.200996,0.28862 0,0.24968 -2.506374,9.82924 -3.366908,12.86858 l -0.302045,1.0668 H 10.577143 9.0042769 l -1.394763,-5.6388 c -0.767119,-3.10134 -1.455489,-5.70706 -1.529711,-5.79049 -0.07422,-0.0834 -0.816494,2.45388 -1.649495,5.63847 l -1.514546,5.79017 -1.581177,4e-4 c -1.08581802,2.1e-4 -1.60696502,-0.0793 -1.66349002,-0.25367 z M 31.87176,198.03642 v -10.0584 h 1.2192 1.219199 v 10.0584 10.0584 h -1.219199 -1.2192 z m 6.299199,0 v -10.0584 h 1.1176 1.1176 v 10.0584 10.0584 h -1.1176 -1.1176 z m 13.411199,3.8608 v -6.1976 h -1.1176 -1.1176 v -0.9144 -0.9144 h 1.1176 1.1176 l 8.13e-4,-1.8796 c 8.13e-4,-2.12792 0.3152,-2.90423 1.457184,-3.59871 0.724251,-0.44044 2.529388,-0.73199 3.313572,-0.53517 0.439582,0.11033 0.511684,0.24241 0.511684,0.93735 0,0.75394 -0.03938,0.80893 -0.579279,0.80893 -0.846116,0 -1.838206,0.39404 -2.066611,0.82082 -0.109453,0.20441 -0.198963,1.0593 -0.198963,1.89974 v 1.52807 l 1.3716,0.0601 1.3716,0.0601 0.06248,0.8636 0.06248,0.8636 H 55.454634 54.02055 v 6.1976 6.1976 h -1.2192 -1.2192 z m 89.232852,-8.04769 c -2.07307,-1.0527 -2.4356,-3.61775 -0.74315,-5.25814 0.63521,-0.61566 0.86423,-0.70412 1.98654,-0.76726 1.01082,-0.0569 1.4031,0.0131 1.93081,0.3442 0.97079,0.60919 1.46968,1.55122 1.47058,2.77684 0.002,2.47095 -2.46307,4.01223 -4.64478,2.90436 z m 2.48435,-0.46209 c 1.00067,-0.4181 1.55159,-1.23381 1.55159,-2.29731 0,-1.28139 -0.47172,-2.05797 -1.53607,-2.52878 -1.13993,-0.50425 -2.24759,-0.26397 -3.02115,0.65537 -1.22991,1.46166 -0.81386,3.21291 1.00122,4.21432 0.55281,0.305 1.20401,0.29084 2.00441,-0.0436 z m -2.30921,-2.46302 v -1.9304 h 0.98451 c 0.69571,0 1.08315,0.10901 1.3208,0.3716 0.37746,0.4171 0.44009,0.96266 0.13235,1.15286 -0.11218,0.0693 -0.16392,0.32618 -0.11499,0.5708 0.3243,1.62131 0.31774,1.76554 -0.0803,1.76554 -0.3029,0 -0.40302,-0.16875 -0.45212,-0.762 -0.0507,-0.61208 -0.15302,-0.77477 -0.52027,-0.82693 -0.40987,-0.0582 -0.4572,0.0207 -0.4572,0.762 0,0.69146 -0.0666,0.82693 -0.4064,0.82693 -0.37788,0 -0.4064,-0.13547 -0.4064,-1.9304 z m 1.88354,-0.5588 c 0.15624,-0.44793 -0.0847,-0.762 -0.58448,-0.762 -0.38321,0 -0.48626,0.10766 -0.48626,0.508 0,0.40173 0.10273,0.508 0.49107,0.508 0.27008,0 0.53093,-0.1143 0.57967,-0.254 z M -3.891438,166.84522 v -20.5232 H 0.40523388 4.7019049 l -0.115917,1.4732 c -0.112307,1.42732 -0.105315,1.45744 0.224528,0.96703 1.896764,-2.82012 4.763812,-3.81966 7.1816051,-2.50373 0.98824,0.53787 2.057181,1.77711 2.575348,2.98565 0.483157,1.12689 0.631394,4.57613 0.629806,14.65465 -0.0021,13.59496 -0.177441,15.3189 -1.743781,17.14882 -1.049765,1.22641 -2.12563,1.72805 -3.7305331,1.73942 -1.918957,0.0136 -3.404217,-0.85822 -4.830565,-2.83544 l -0.43976,-0.6096 -0.0064,4.0132 -0.0064,4.0132 H 0.27415688 -3.891443 Z m 10.5078959,8.9408 c 0.195782,-0.38894 0.256414,-3.03798 0.258708,-11.303 0.0016,-5.93725 -0.0548,-11.08399 -0.125448,-11.43721 -0.248036,-1.24018 -1.710045,-1.2943 -2.05035,-0.0759 -0.0869,0.31114 -0.158006,5.46181 -0.158006,11.44594 0,10.16313 0.02428,10.91728 0.368323,11.44227 0.46886,0.71544 1.328627,0.67912 1.706773,-0.0721 z m 20.4005151,6.90576 c -1.248924,-0.26423 -3.257132,-1.23924 -4.128858,-2.00463 -1.039369,-0.91258 -1.946932,-2.41348 -2.565019,-4.24196 l -0.531921,-1.57357 -0.06815,-9.69337 c -0.0731,-10.39728 0.01747,-11.72919 0.968294,-14.23999 1.247565,-3.2944 4.20151,-5.22584 7.992413,-5.22584 2.909947,0 4.963403,0.79436 6.66956,2.58005 2.354352,2.4641 3.018842,5.17135 3.02009,12.30435 l 7.74e-4,4.4196 H 33.07302 27.771882 l 0.06874,5.14016 c 0.06024,4.50504 0.113252,5.20804 0.429021,5.6896 0.428158,0.65295 1.148108,0.72162 1.658049,0.15814 0.474665,-0.52449 0.710068,-2.51082 0.718218,-6.0603 l 0.0066,-2.8956 h 3.860799 3.8608 l -0.0035,3.4036 c -0.0042,4.09486 -0.270613,5.54155 -1.430985,7.77193 -1.040764,2.00048 -2.52606,3.43739 -4.204965,4.06796 -1.329515,0.49935 -4.274107,0.70528 -5.717709,0.39987 z m 3.186714,-26.67299 c -0.05418,-1.59589 -0.201406,-3.09389 -0.327172,-3.32889 -0.317588,-0.59342 -0.825632,-0.74069 -1.356104,-0.39311 -0.537574,0.35223 -0.708258,1.44248 -0.710885,4.54083 l -0.0018,2.0828 h 1.247217 1.247217 z m 32.789319,26.57986 c -2.685664,-0.6094 -4.299177,-1.83525 -5.338228,-4.05565 -1.183402,-2.52887 -1.275877,-3.52255 -1.287175,-13.83138 -0.009,-8.22255 0.03384,-9.56724 0.356167,-11.176 0.704797,-3.51771 2.255479,-5.81543 4.755221,-7.04605 1.138052,-0.56026 1.566493,-0.65341 3.375422,-0.73387 5.153713,-0.22921 8.287162,1.99632 9.824388,6.97775 0.340289,1.10272 0.372956,2.08064 0.372956,11.16537 0,6.83088 -0.07465,10.30767 -0.237775,11.0744 -0.820544,3.85676 -2.922692,6.53049 -5.849032,7.43939 -1.451039,0.45068 -4.40071,0.54257 -5.971944,0.18604 z m 3.524654,-6.68297 c 0.276137,-0.42144 0.307671,-1.87253 0.258684,-11.90366 -0.05391,-11.03962 -0.06905,-11.43342 -0.450224,-11.71206 -0.508023,-0.37137 -0.583678,-0.36483 -1.157852,0.10011 l -0.479711,0.38845 v 11.34635 c 0,8.87012 0.05699,11.44613 0.261149,11.80355 0.349276,0.61149 1.160099,0.59972 1.567954,-0.0227 z m 34.47374,6.67024 c -3.247246,-0.70476 -5.040816,-2.43537 -6.003326,-5.79258 -0.53093,-1.85186 -0.73357,-5.25265 -0.73374,-12.31419 -1.8e-4,-6.89611 0.18911,-10.01404 0.73838,-12.16273 0.69025,-2.70018 2.41538,-4.88535 4.70353,-5.95781 1.076996,-0.50478 1.354966,-0.54406 3.803506,-0.53742 2.23803,0.006 2.81234,0.0756 3.7592,0.45476 2.47396,0.99079 4.31808,3.11638 5.32875,6.14207 0.41969,1.25646 0.44502,1.74647 0.51995,10.0584 0.0857,9.50594 -0.0765,12.30065 -0.83544,14.39141 -0.8455,2.32932 -2.34173,4.16833 -4.13958,5.08796 -1.74135,0.89072 -4.72677,1.15415 -7.14123,0.63013 z m 3.52466,-6.67024 c 0.27613,-0.42144 0.30767,-1.87253 0.25868,-11.90366 -0.0539,-11.03962 -0.0691,-11.43342 -0.45022,-11.71206 -0.50803,-0.37137 -0.58368,-0.36483 -1.15786,0.10011 l -0.47971,0.38845 v 11.34635 c 0,8.87012 0.057,11.44613 0.26115,11.80355 0.34928,0.61149 1.1601,0.59972 1.56796,-0.0227 z m -61.418411,-15.52206 0.05171,-21.8948 4.2164,-0.0549 4.216399,-0.0549 v 21.94973 21.94972 h -4.26811 -4.268112 z m 41.383189,21.68899 c -1.272782,-0.21529 -2.046769,-0.65008 -2.870637,-1.61259 -1.284007,-1.50007 -1.251019,-1.12951 -1.325953,-14.8948 l -0.06831,-12.5476 h -0.905693 -0.905693 v -2.9464 -2.9464 h 0.9144 0.9144 v -2.8448 -2.8448 h 4.064 4.064002 v 2.8448 2.8448 h 1.2192 1.2192 v 2.9464 2.9464 h -1.2192 -1.2192 l 0.0204,9.4996 c 0.0201,9.38698 0.1444,13.28921 0.43237,13.57645 0.0814,0.0812 0.60714,0.19167 1.1684,0.2456 l 1.02047,0.0981 v 2.92054 2.92055 l -2.794003,-0.0239 c -1.536702,-0.0131 -3.214356,-0.095 -3.72812,-0.18191 z m 33.344512,-17.77739 v -17.9832 h 4.15632 4.15631 l 0.0601,1.32324 0.0601,1.32324 0.7112,-0.95963 c 0.39116,-0.52779 1.1077,-1.23755 1.59231,-1.57723 0.81839,-0.57366 1.00745,-0.61762 2.65644,-0.61762 1.59955,0 1.85952,0.0557 2.62565,0.56272 1.05775,0.69998 1.96433,1.93054 2.41686,3.28054 0.31213,0.93113 0.35322,2.5991 0.41473,16.83234 l 0.0683,15.7988 h -4.17593 -4.17593 v -14.732 c 0,-14.46106 -0.007,-14.73947 -0.4064,-15.1384 -0.50338,-0.50338 -0.64545,-0.50543 -1.24749,-0.018 l -0.47971,0.38839 -0.0547,14.75001 -0.0547,14.75001 h -4.16169 -4.1617 z"
       id="path1875" /></g></svg>
