<?xml version="1.0" encoding="UTF-8" standalone="no"?>
<!-- Created with Inkscape (http://www.inkscape.org/) -->

<svg
   width="17.587368mm"
   height="18.434395mm"
   viewBox="0 0 17.587368 18.434394"
   version="1.1"
   id="svg5"
   xml:space="preserve"
   inkscape:export-filename="star.svg"
   inkscape:export-xdpi="96"
   inkscape:export-ydpi="96"
   xmlns:inkscape="http://www.inkscape.org/namespaces/inkscape"
   xmlns:sodipodi="http://sodipodi.sourceforge.net/DTD/sodipodi-0.dtd"
   xmlns="http://www.w3.org/2000/svg"
   xmlns:svg="http://www.w3.org/2000/svg"><sodipodi:namedview
     id="namedview7"
     pagecolor="#ffffff"
     bordercolor="#000000"
     borderopacity="0.25"
     inkscape:showpageshadow="2"
     inkscape:pageopacity="0.0"
     inkscape:pagecheckerboard="0"
     inkscape:deskcolor="#d1d1d1"
     inkscape:document-units="mm"
     showgrid="false" /><defs
     id="defs2" /><g
     inkscape:label="Layer 1"
     inkscape:groupmode="layer"
     id="layer1"
     transform="translate(-51.970879,-114.55625)"><path
       style="fill:#ffffff;stroke-width:0.264583"
       d="m 53.139684,132.62638 c -0.28543,-0.34392 -0.262428,-0.55723 0.135526,-1.25677 0.645091,-1.13398 3.16271,-4.45604 3.844828,-5.07335 0.504401,-0.45648 0.582674,-0.46209 0.974884,-0.0699 0.392209,0.39221 0.320481,0.56074 -0.893372,2.09898 -0.725902,0.9199 -1.753469,2.35714 -2.283482,3.19389 -1.029302,1.62498 -1.239829,1.75605 -1.778384,1.10713 z m 4.518517,-1.03351 c -0.423809,-0.51066 0.267072,-1.64414 2.095142,-3.43736 1.263145,-1.23906 1.364294,-1.28766 1.791251,-0.86071 0.426957,0.42696 0.392399,0.51606 -0.611992,1.5778 -0.585475,0.61891 -1.390589,1.57178 -1.789141,2.11748 -0.798981,1.09398 -1.007405,1.17857 -1.48526,0.60279 z m 5.667768,-3.52542 c -0.428547,-0.5323 -0.921833,-1.26821 -1.096192,-1.63535 -0.730114,-1.5374 -0.937619,-1.63878 -3.165925,-1.54684 l -2.07331,0.0855 -0.08423,-0.73285 c -0.05724,-0.49804 0.163621,-1.04906 0.689321,-1.71979 1.457235,-1.85924 1.495823,-2.04176 0.858565,-4.06092 -0.918061,-2.90889 -0.331541,-3.52003 2.105339,-2.19372 1.175479,0.63978 1.310036,0.65912 2.020181,0.29035 0.418451,-0.21729 1.230304,-0.76912 1.804117,-1.2263 1.5217,-1.21237 2.080007,-1.02681 2.345854,0.77969 0.117783,0.80036 0.268058,1.82112 0.333945,2.26834 0.08568,0.58156 0.457963,1.06651 1.307204,1.70282 0.653075,0.48933 1.187409,1.09183 1.187409,1.33889 0,0.50815 -1.934426,2.36287 -2.464414,2.36287 -0.190422,0 -0.606798,0.24276 -0.92528,0.53947 -0.447344,0.41676 -0.579056,0.842 -0.579056,1.86948 0,1.4603 -0.291957,2.20798 -1.012825,2.59377 -0.37827,0.20245 -0.625638,0.0609 -1.250707,-0.71546 z m 1.077799,-3.93042 c 0.07613,-0.34839 0.689486,-0.88814 1.581095,-1.39133 1.623625,-0.91632 1.807582,-1.41504 0.729117,-1.97668 -0.566879,-0.29522 -0.842286,-0.76429 -1.246769,-2.12346 -0.540485,-1.81618 -0.676712,-1.97894 -1.164443,-1.39126 -0.584295,0.70403 -2.368772,1.09195 -3.560213,0.77393 -0.605841,-0.16171 -1.117485,-0.27312 -1.136985,-0.24759 -0.0195,0.0255 0.178527,0.69444 0.440062,1.48647 0.461789,1.39847 0.460944,1.46861 -0.02923,2.42944 -0.277614,0.54417 -0.625516,1.06404 -0.773116,1.15526 -0.657491,0.40635 -0.149275,0.60366 1.25299,0.48646 l 1.521354,-0.12715 1.058333,1.5413 c 1.042718,1.51857 1.059404,1.5296 1.130884,0.74756 0.0399,-0.43656 0.128519,-1.04989 0.196925,-1.36295 z m -12.302784,2.42759 c -0.264981,-0.31928 -0.154554,-0.62111 0.605012,-1.65365 1.703937,-2.3163 2.846384,-3.00916 2.820379,-1.71048 -0.0098,0.48912 -2.510852,3.7547 -2.87567,3.7547 -0.124067,0 -0.371442,-0.17576 -0.549721,-0.39057 z"
       id="path379" /></g></svg>
