<?xml version="1.0" encoding="UTF-8" standalone="no"?>
<!-- Created with Inkscape (http://www.inkscape.org/) -->

<svg
   width="29.738131mm"
   height="27.542398mm"
   viewBox="0 0 29.738127 27.542401"
   version="1.1"
   id="svg5"
   xml:space="preserve"
   xmlns="http://www.w3.org/2000/svg"
   xmlns:svg="http://www.w3.org/2000/svg"><defs
     id="defs2" /><g
     id="layer1"
     transform="translate(-108.82272,140.48164)"><path
       style="fill:#000;stroke-width:0.264583"
       d="m 130.88792,-113.23575 c -0.3638,-0.14464 -0.98888,-0.57609 -1.38906,-0.95877 l -0.7276,-0.69579 v -1.30454 -1.30455 l 1.04496,-1.04496 1.04497,-1.04497 0.87326,0.0839 0.87326,0.0839 0.0832,0.58466 0.0831,0.58466 -0.94246,0.39378 c -0.51835,0.21658 -1.07744,0.69003 -1.24241,1.05212 -0.16498,0.36208 -0.22645,0.84989 -0.1366,1.08402 0.0898,0.23414 0.57792,0.59892 1.08461,0.81063 0.5067,0.21171 1.27525,0.38493 1.7079,0.38493 0.43265,0 0.86663,-0.12944 0.9644,-0.28764 0.0978,-0.1582 0.0593,-0.4061 -0.0855,-0.55089 -0.17461,-0.17461 -0.44013,-0.15279 -0.78857,0.0648 -0.28892,0.18043 -0.71967,0.25348 -0.95723,0.16232 -0.23756,-0.0912 -0.43192,-0.44333 -0.43192,-0.78259 0,-0.33927 0.14287,-0.75972 0.3175,-0.93435 0.17462,-0.17462 0.82946,-0.3175 1.4552,-0.3175 h 1.13771 l 0.52917,0.52917 c 0.34474,0.34474 0.52917,0.88194 0.52917,1.54138 v 1.01221 l -0.61237,0.57529 -0.61236,0.57529 -1.57045,-0.0168 c -0.86375,-0.009 -1.86811,-0.13511 -2.23191,-0.27975 z m -16.54078,-5.79437 -1.59183,-0.50493 -1.3687,-1.34025 c -0.90901,-0.89012 -1.56941,-1.84854 -1.9663,-2.85365 l -0.59759,-1.5134 0.003,-2.64583 0.003,-2.64584 0.82445,-1.78124 c 0.45344,-0.97969 1.33889,-2.38349 1.96764,-3.11956 0.62876,-0.73607 1.78773,-1.82828 2.57547,-2.42713 0.78775,-0.59885 2.15549,-1.31391 3.03942,-1.58902 0.88393,-0.27511 2.02534,-0.46494 2.53648,-0.42183 l 0.92933,0.0784 v 0.62539 0.62539 l -1.97296,0.50104 c -1.08514,0.27557 -2.44713,0.82758 -3.02665,1.22669 -0.57952,0.39911 -1.58086,1.26144 -2.2252,1.91628 -0.66147,0.67226 -1.57692,2.05222 -2.10266,3.1696 l -0.93114,1.97898 -0.0223,1.72519 c -0.0135,1.04563 0.1713,2.29019 0.46926,3.15956 0.27922,0.81466 0.9476,1.92905 1.54704,2.57937 l 1.05543,1.14501 1.71425,0.52948 c 0.94284,0.29121 2.32679,0.52858 3.07545,0.52748 0.74865,-10e-4 2.13109,-0.12691 3.07209,-0.27958 0.94099,-0.15267 2.40634,-0.64826 3.25634,-1.1013 l 1.54545,-0.82372 0.67145,-1.14574 c 0.36929,-0.63016 0.72742,-1.59219 0.79584,-2.13785 l 0.12439,-0.99211 -1.07188,-2.19474 -1.07187,-2.19475 -0.95808,-0.40031 c -0.52694,-0.22017 -1.52854,-0.40473 -2.22578,-0.41013 -0.69724,-0.005 -1.71261,0.2013 -2.25638,0.45934 l -0.98867,0.46915 -0.49566,1.12052 -0.49566,1.12052 0.24841,0.65338 c 0.13663,0.35935 0.61532,0.91463 1.06376,1.23395 l 0.81535,0.58058 0.8084,-0.17756 c 0.44462,-0.0977 0.87571,-0.35295 0.95798,-0.56733 0.0823,-0.21437 -0.001,-0.67136 -0.18533,-1.01553 -0.18419,-0.34417 -0.26328,-0.81239 -0.17575,-1.04049 0.0876,-0.22843 0.46607,-0.41472 0.8424,-0.41472 h 0.68327 l 0.41413,0.99115 0.41413,0.99116 -0.22919,0.92707 -0.2292,0.92708 -0.92604,0.46261 c -0.50932,0.25443 -1.43442,0.46279 -2.05578,0.46302 -0.73923,2.6e-4 -1.47965,-0.22048 -2.14202,-0.63862 -0.55676,-0.35146 -1.20923,-1.05407 -1.44995,-1.56134 -0.24072,-0.50727 -0.43505,-1.32104 -0.43186,-1.80837 0.003,-0.48733 0.22836,-1.37612 0.50037,-1.9751 0.27201,-0.59898 0.89706,-1.39606 1.38902,-1.77129 0.49195,-0.37523 1.48691,-0.815 2.21102,-0.97728 0.73821,-0.16544 1.89796,-0.21555 2.64007,-0.11407 0.72793,0.0995 1.62116,0.29318 1.98496,0.43031 0.3638,0.13714 0.9447,0.50929 1.29088,0.82702 0.34618,0.31773 1.09032,1.52389 1.65365,2.68036 l 1.02422,2.10267 v 1.4834 1.4834 l -0.68203,1.36866 c -0.37511,0.75276 -1.04693,1.6757 -1.49292,2.05098 -0.446,0.37528 -1.37592,0.96864 -2.06649,1.31858 -0.69058,0.34994 -2.01306,0.75917 -2.93885,0.90939 -0.92579,0.15022 -2.69528,0.26734 -3.93221,0.26027 -1.44804,-0.008 -2.81585,-0.19268 -3.84078,-0.51779 z m 16.31076,-12.20884 -1.15606,-0.57223 -0.39315,-0.94093 c -0.24514,-0.58671 -0.34267,-1.38874 -0.25907,-2.13045 l 0.13408,-1.18952 0.94823,-0.86898 0.94822,-0.86899 h 1.3118 1.3118 l 0.41188,0.58804 c 0.22653,0.32342 0.41188,1.02322 0.41188,1.5551 0,0.53189 -0.17288,1.11054 -0.38417,1.2859 -0.21129,0.17535 -0.59824,0.2765 -0.8599,0.22476 l -0.47573,-0.0941 v -0.89717 c 0,-0.49345 -0.14222,-0.94492 -0.31606,-1.00328 -0.17383,-0.0584 -0.56648,0.0279 -0.87256,0.19172 -0.30607,0.16381 -0.66691,0.58825 -0.80187,0.94321 -0.15311,0.40271 -0.14898,0.89888 0.011,1.31962 0.14804,0.38939 0.64471,0.83653 1.17557,1.05834 0.50558,0.21124 1.34243,0.38407 1.85968,0.38407 h 0.94045 l 1.18471,-1.09203 1.18472,-1.09203 v -0.9411 c 0,-0.5176 -0.24839,-1.45419 -0.55197,-2.08131 l -0.55197,-1.14021 -0.83709,-0.21692 -0.8371,-0.21691 v -0.64464 -0.64464 l 0.94015,-0.079 0.94014,-0.079 0.6904,0.54307 c 0.37972,0.29868 0.93892,1.05644 1.24267,1.6839 l 0.55227,1.14084 v 1.66034 1.66035 l -0.92605,1.08188 c -0.50933,0.59503 -1.25347,1.29778 -1.65365,1.56167 l -0.72759,0.47979 -1.71979,0.002 -1.7198,0.002 z"
       id="path1323" /></g></svg>
