<?xml version="1.0" encoding="utf-8"?>
<svg viewBox="-2113.499 -265.853 2925.54 1036.036" xmlns="http://www.w3.org/2000/svg">
  <ellipse style="stroke-width: 50px; stroke: rgb(0, 0, 0);" cx="275.187" cy="245.254" rx="367.971" ry="352.714"/>
  <path style="stroke-linejoin: round; stroke-width: 50px; stroke-linecap: round; stroke: rgb(255, 255, 255); fill: rgba(255, 255, 255, 0);" d="M 161.923 391.62 C 153.052 399.498 559.406 529.686 494.258 121.683"/>
  <ellipse style="stroke: rgb(255, 255, 255); fill: rgb(255, 255, 255);" cx="218.027" cy="86.406" rx="42.896" ry="40.528" transform="matrix(0.999834, 0.018208, -0.024058, 0.999728, 59.580711, -23.255354)"/>
  <ellipse style="stroke: rgb(255, 255, 255); fill: rgb(255, 255, 255);" cx="101.795" cy="195.128" rx="41.581" ry="43.16" transform="matrix(0.999834, 0.018208, -0.024058, 0.999728, 59.580818, -23.255205)"/>
  <path style="stroke-width: 44px; stroke-miterlimit: 10; stroke: rgb(0, 0, 0); stroke-linecap: round; stroke-linejoin: bevel;" d="M -1950.73 241.064 C -2043.442 223.124 -1823.013 101.687 -1754.13 37.092 C -1732.019 16.357 -1695.174 -39.436 -1678.837 -13.903 C -1657.979 18.697 -1700.462 60.699 -1716.484 95.929 C -1761.217 194.29 -1811.949 289.815 -1860.796 386.199 C -1878.882 421.885 -1897.317 457.428 -1917.267 492.107 C -1925.935 507.174 -1956.352 549.611 -1946.547 535.258 C -1908.158 479.065 -1876.367 417.769 -1831.515 366.586 C -1744.107 266.838 -1646.07 176.899 -1551.256 84.163 C -1516.359 50.031 -1480.049 17.286 -1442.499 -13.903 C -1431.114 -23.359 -1418.709 -42.636 -1404.852 -37.438 C -1393.753 -33.275 -1416.007 -16.518 -1421.584 -6.058 C -1430.647 10.94 -1440.353 27.611 -1448.773 44.937 C -1490.556 130.92 -1537.005 214.931 -1572.171 303.825 C -1585.408 337.287 -1604.463 375.595 -1593.086 409.734 C -1586.158 430.523 -1549.756 439.51 -1530.341 429.349 C -1452.912 388.824 -1385.936 329.451 -1323.284 268.523 C -1290.685 236.821 -1234.62 111.305 -1247.99 154.767 C -1271.577 231.444 -1335.76 292.542 -1354.656 370.508 C -1360.771 395.738 -1309.132 344.711 -1289.82 327.362 C -1225.907 269.946 -1164.382 209.74 -1105.769 146.923 C -1081.223 120.617 -1060.2 91.013 -1040.933 60.627 C -1029.363 42.38 -1008.179 22.665 -1013.743 1.788 C -1018.79 -17.152 -1033.879 35.445 -1043.024 52.781 C -1098.722 158.364 -1154.848 263.746 -1208.252 370.508 C -1218.332 390.659 -1251.965 445.964 -1233.35 433.27 C -1208.007 415.988 -1211.516 370.656 -1185.245 354.819 C -1090.669 297.806 -987.605 253.679 -881.98 221.453 C -839.303 208.432 -779.39 189.621 -748.124 221.453 C -725.68 244.303 -782.754 277.307 -808.777 295.98 C -864.259 335.792 -923.558 373.385 -988.646 394.044 C -1018.122 403.399 -1104.053 402.516 -1080.671 382.277 C -1034.476 342.29 -968.102 326.429 -907.077 323.437 C -856.261 320.945 -807.259 387.035 -760.673 366.586 C -691.179 336.082 -674.126 237.836 -612.177 193.993 C -591.807 179.577 -525.714 188.544 -538.975 209.684 C -586.986 286.221 -653.677 360.747 -737.667 394.044 C -768.985 406.46 -818.763 336.715 -796.229 311.671 C -756.799 267.85 -683.47 263.605 -624.726 268.523 C -595.248 270.991 -589.069 343.172 -561.982 331.282 C -500.834 304.442 -476.838 227.906 -428.126 182.227 C -411.142 166.3 -454.194 220.864 -465.773 241.064 C -484.195 273.203 -500.267 306.636 -518.06 339.128 C -526.763 355.021 -560.384 396.163 -545.25 386.199 C -465.898 333.952 -416.451 207.828 -321.461 209.684 C -260.839 210.869 -389.578 349.608 -344.467 390.123 C -300.362 429.734 -113.937 348.529 -172.965 343.051 C -763.988 288.205 -1367.977 353.828 -1950.73 241.064 Z"/>
</svg>